<svg enable-background="new 0 0 50 50" viewBox="0 0 50 50" xmlns="http://www.w3.org/2000/svg"><g fill="#094e69"><path d="m43.9 23.4c-.1-.7-.7-1.3-1.4-1.2s-1.3.7-1.2 1.4v1.4c0 10.7-8.7 19.3-19.3 19.3s-19.3-8.6-19.3-19.3 8.6-19.3 19.3-19.3c4.2 0 8.2 1.3 11.6 3.9.6.4 1.4.3 1.9-.3.4-.6.3-1.4-.3-1.9-3.9-2.9-8.4-4.4-13.2-4.4-12.1 0-22 9.9-22 22s9.9 22 22 22 22-9.9 22-22c0-.5 0-1.1-.1-1.6z"/><path d="m48.5 6c-2-2-5.3-2-7.4 0l-19.2 19.3-6.9-6.8c-2-2-5.3-2-7.4 0-2 2-2 5.3 0 7.4l11.8 11.8c.7.7 1.6 1 2.4 1 .9 0 1.8-.3 2.4-1l24.2-24.2c2.1-2.1 2.1-5.4.1-7.5zm-1.9 5.5-24.2 24.2c-.3.3-.8.3-1.1 0l-11.7-11.8c-1-1-1-2.6 0-3.6.5-.5 1.1-.7 1.8-.7s1.3.2 1.8.7l7 7c.5.5 1.1.7 1.7.7s1.2-.2 1.7-.7l19.4-19.4c1-1 2.6-1 3.6 0s1 2.6 0 3.6z"/></g></svg>