<svg enable-background="new 0 0 50 50" viewBox="0 0 50 50" xmlns="http://www.w3.org/2000/svg"><g fill="#00aeef"><path d="m45.9 0c-.2 0-.7 0-.8 0h-29.5c-.5 0-1 .4-1 1s.4 1 1 1h26.8c-.4.6-.6 1.4-.6 2.1v12.8c0 .5.4 1 1 1s1-.4 1-1v-3h5.2c.5 0 1-.4 1-1v-8.8c0-2.3-1.8-4.1-4.1-4.1zm2.1 11.9h-4.3v-7.8c0-1.2 1-2.1 2.1-2.1 1.2 0 2.1 1 2.1 2.1z"/><path d="m48.9 39.8-6.4-6.4c.7-1.5 1.2-3.2 1.2-5 0-6.2-5.1-11.3-11.3-11.3s-11.4 5.1-11.4 11.3c0 1.4.3 2.8.8 4.1l-1.1 1.1-4.7-4.7c-.2-.2-.4-.3-.7-.3s-.5.1-.7.3l-1.1 1.1v-8.9c0-.5-.4-1-1-1s-1 .4-1 1v10.9l-8.8 8.8c-.4.4-.4 1 0 1.4.2.2.4.3.7.3s.5-.1.7-.3l7.4-7.4v7h-4.3c-.5 0-1 .4-1 1v3.1c0 2.3 1.8 4.1 4.1 4.1h29.3c2.3 0 4.1-1.8 4.1-4.1v-.8c.7.7 1.6 1 2.5 1 1 0 1.9-.4 2.6-1.1 1.6-1.4 1.6-3.8.1-5.2zm-16.5-20.7c5.2 0 9.4 4.2 9.4 9.4s-4.2 9.4-9.4 9.4c-3.5 0-6.6-2-8.2-4.9l5.6-5.6v2.2c0 .5.4 1 1 1 .5 0 1-.4 1-1v-4.7c0-.5-.4-1-1-1h-4.7c-.5 0-1 .4-1 1 0 .5.4 1 1 1h2.4l-5.2 5.1c-.2-.8-.3-1.6-.3-2.5 0-5.2 4.2-9.4 9.4-9.4zm-22 28.9c-1.2 0-2.1-1-2.1-2.1v-2.1h27.3v1.2.1.1.8c0 .8.2 1.5.6 2.1zm31.4-2.1c0 1.2-1 2.1-2.1 2.1-1.2 0-2.1-1-2.1-2.1v-.8-.1-.1-2.1c0-.5-.4-1-1-1h-23v-9l1.8-1.8 4.7 4.7c.2.2.4.3.7.3s.5-.1.7-.3l1.4-1.4c2 3.3 5.6 5.4 9.7 5.4 1.8 0 3.5-.4 4.9-1.1l4.5 4.5v2.8zm5.7-2.3c-.3.3-.8.5-1.2.5-.5 0-.9-.2-1.2-.5l-6-6c.9-.7 1.8-1.5 2.5-2.5l6 6c.6.7.6 1.8-.1 2.5z"/><path d="m38.6 27.5c-.5 0-1 .4-1 1 0 2.9-2.3 5.2-5.2 5.2-.5 0-1 .4-1 1 0 .5.4 1 1 1 3.9 0 7.2-3.2 7.2-7.2-.1-.6-.5-1-1-1z"/><path d="m25 16.8h-.9v-6.5c0-.5-.4-1-1-1h-4.5c-.5 0-1 .4-1 1v6.5h-1.6v-10.5c0-.5-.4-1-1-1h-4.3c-.5 0-1 .4-1 1v10.5h-1.4v-4.3c0-.5-.4-1-1-1h-4.3c-.5 0-1 .4-1 1v4.3h-1c-.5 0-1 .4-1 1 0 .5.4 1 1 1h24c.5 0 1-.4 1-1s-.4-1-1-1zm-18.7 0h-2.3v-3.3h2.3zm7.9 0h-2.3v-9.6h2.3zm8 0h-2.5v-5.6h2.5z"/><path d="m33 5.3h-7.6c-.5 0-1 .4-1 1s.4 1 1 1h7.6c.5 0 1-.4 1-1-.1-.6-.5-1-1-1z"/><path d="m38.5 5.6c-.2-.2-.4-.3-.7-.3s-.5.1-.7.3-.3.4-.3.7.1.5.3.7.4.3.7.3.5-.1.7-.3.3-.4.3-.7-.1-.6-.3-.7z"/><path d="m29.2 9.6h-1.6c-.5 0-1 .4-1 1s.4 1 1 1h1.6c.5 0 1-.4 1-1s-.5-1-1-1z"/><path d="m37.8 9.6h-4.8c-.5 0-1 .4-1 1s.4 1 1 1h4.8c.5 0 1-.4 1-1s-.5-1-1-1z"/><path d="m1.7 43.2c-.2-.2-.4-.3-.7-.3s-.5.1-.7.3c-.2.2-.3.5-.3.7s.1.5.3.7.4.3.7.3.5-.1.7-.3c.1-.2.3-.4.3-.7 0-.2-.2-.5-.3-.7z"/></g></svg>