<svg enable-background="new 0 0 512.001 512.001" height="512" viewBox="0 0 512.001 512.001" width="512" xmlns="http://www.w3.org/2000/svg"><g fill="#094e69"><path d="m102.9 160.76c-1.47-.81-3.119-1.229-4.79-1.229-3.659 0-7.029 1.989-8.779 5.21-15.29 27.979-23.37 59.579-23.37 91.409 0 14.931 1.78 29.86 5.28 44.36 3.609 14.93 9.069 29.47 16.22 43.2.01.02.02.05.03.07l.029.05c1.73 3.319 5.13 5.38 8.88 5.38 1.61 0 3.17-.38 4.61-1.13 4.89-2.55 6.8-8.601 4.25-13.49l-.06-.11c-12.761-24.529-19.24-50.88-19.24-78.33 0-28.489 7.229-56.779 20.92-81.819 2.641-4.841.861-10.932-3.98-13.571z"/><path d="m347.201 89.291c-27.971-15.26-59.561-23.33-91.351-23.33h-.02c-14.931 0-29.851 1.78-44.351 5.29-14.93 3.6-29.46 9.06-43.189 16.21-.061.03-.13.06-.19.1-2.37 1.23-4.109 3.311-4.91 5.86-.81 2.55-.569 5.26.67 7.63 1.731 3.308 5.131 5.369 8.87 5.369 1.601 0 3.19-.39 4.61-1.13h.01c.04-.021.07-.04.101-.061l.069-.029c24.53-12.761 50.88-19.24 78.33-19.24 28.46 0 56.73 7.22 81.76 20.89 1.471.8 3.12 1.22 4.79 1.22 3.66 0 7.03-1.989 8.78-5.21 2.64-4.84.851-10.92-3.979-13.569z"/><path d="m348.02 411.02c-1.729-3.32-5.129-5.38-8.879-5.38-1.59 0-3.18.391-4.6 1.13h-.01l-.061.03c-24.52 12.76-50.87 19.23-78.33 19.23-28.5 0-56.81-7.24-81.87-20.94-1.47-.81-3.12-1.23-4.79-1.23-3.66 0-7.029 1.99-8.779 5.2-2.65 4.84-.86 10.931 3.979 13.57 27.99 15.31 59.62 23.4 91.47 23.4h.03c14.92 0 29.84-1.771 44.351-5.28 14.92-3.61 29.449-9.061 43.17-16.2.01-.01.069-.04.069-.04 2.37-1.229 4.12-3.32 4.92-5.86.801-2.55.561-5.26-.67-7.63z"/><path d="m440.752 211.48c-3.601-14.92-9.061-29.46-16.21-43.189-.04-.09-.09-.17-.13-.25-1.73-3.32-5.13-5.38-8.87-5.38-1.601 0-3.2.399-4.62 1.14-4.89 2.55-6.79 8.61-4.24 13.49l.12.229c12.76 24.53 19.23 50.88 19.23 78.33.01 28.53-7.25 56.86-20.98 81.931-2.641 4.839-.862 10.929 3.969 13.569 1.48.811 3.13 1.23 4.8 1.23 3.66 0 7.021-1.99 8.78-5.2 15.33-28.01 23.431-59.66 23.431-91.53.01-14.93-1.771-29.859-5.28-44.37z"/><path d="m256.001 106c-82.71 0-150 67.29-150 150s67.29 150 150 150 150-67.29 150-150-67.29-150-150-150zm0 280c-71.683 0-130-58.317-130-130s58.317-130 130-130 130 58.317 130 130-58.317 130-130 130z"/><path d="m256.001 246c-16.542 0-30-13.458-30-30 0-13.036 8.361-24.152 20-28.28v28.28c0 5.522 4.478 10 10 10s10-4.478 10-10v-28.28c11.639 4.128 20 15.243 20 28.28 0 5.522 4.478 10 10 10s10-4.478 10-10c0-24.146-17.205-44.348-40-48.994v-11.006c0-5.522-4.478-10-10-10s-10 4.478-10 10v11.006c-22.795 4.646-40 24.847-40 48.994 0 27.57 22.43 50 50 50 16.542 0 30 13.458 30 30 0 13.036-8.361 24.152-20 28.28v-28.28c0-5.522-4.478-10-10-10s-10 4.478-10 10v28.28c-11.639-4.128-20-15.243-20-28.28 0-5.522-4.478-10-10-10s-10 4.478-10 10c0 24.146 17.205 44.348 40 48.994v11.006c0 5.522 4.478 10 10 10s10-4.478 10-10v-11.006c22.795-4.646 40-24.847 40-48.994 0-27.57-22.43-50-50-50z"/><path d="m337.94 314.18c-1.819-1.59-4.149-2.46-6.569-2.46-2.891 0-5.641 1.24-7.54 3.42-1.75 2.01-2.62 4.59-2.44 7.25.18 2.67 1.391 5.101 3.4 6.86 1.819 1.59 4.16 2.46 6.569 2.46 2.9 0 5.641-1.24 7.54-3.42 3.631-4.16 3.201-10.48-.96-14.11z"/><path d="m338.501 183.25c-1.9-2.15-4.641-3.391-7.5-3.391-2.44 0-4.79.891-6.62 2.511-2 1.76-3.19 4.21-3.36 6.87-.17 2.659.71 5.229 2.471 7.229.01 0 .01.01.01.01 14.51 16.45 22.49 37.59 22.5 59.521 0 9.6-1.5 19.05-4.47 28.069-.83 2.54-.62 5.25.579 7.641 1.21 2.38 3.271 4.149 5.811 4.979 1.01.341 2.06.5 3.11.5 4.34 0 8.149-2.76 9.51-6.88 3.62-11.04 5.46-22.58 5.46-34.31.009-26.829-9.761-52.669-27.501-72.749z"/><path d="m190.61 189.609c-.18-2.67-1.39-5.1-3.399-6.859-1.83-1.59-4.16-2.47-6.58-2.47-2.89 0-5.63 1.25-7.53 3.43-1.76 2.01-2.63 4.59-2.45 7.25.19 2.67 1.39 5.1 3.41 6.859 1.82 1.591 4.15 2.461 6.57 2.461 2.89 0 5.64-1.24 7.54-3.421 1.75-2.01 2.62-4.59 2.439-7.25z"/><path d="m188.501 315.52-.01-.01c-14.5-16.45-22.48-37.58-22.49-59.51 0-9.601 1.5-19.04 4.46-28.08.84-2.53.63-5.24-.57-7.63-1.21-2.38-3.27-4.15-5.81-4.98-1.011-.34-2.061-.51-3.12-.51-4.33 0-8.15 2.77-9.5 6.89-3.62 11.039-5.46 22.59-5.46 34.31-.01 26.819 9.76 52.66 27.5 72.75 1.899 2.149 4.63 3.39 7.5 3.39 2.439 0 4.79-.89 6.62-2.51 4.13-3.64 4.529-9.98.88-14.11z"/><path d="m482.001 452c-4.626 0-9.009 1.054-12.926 2.932l-62.346-62.346h15.857c5.522 0 10-4.478 10-10s-4.478-10-10-10h-40c-5.522 0-10 4.478-10 10v40c0 5.522 4.478 10 10 10s10-4.478 10-10v-15.857l62.346 62.346c-1.878 3.917-2.932 8.3-2.932 12.926 0 16.542 13.458 30 30 30s30-13.458 30-30-13.457-30.001-29.999-30.001zm0 40c-5.514 0-10-4.486-10-10s4.486-10 10-10 10 4.486 10 10-4.486 10-10 10z"/><path d="m128.722 78.721c-5.522 0-10 4.478-10 10v15.857l-61.653-61.652c1.878-3.917 2.932-8.3 2.932-12.926 0-16.542-13.458-30-30-30s-30 13.458-30 30 13.458 30 30 30c4.626 0 9.009-1.054 12.926-2.932l61.652 61.653h-15.857c-5.522 0-10 4.478-10 10s4.478 10 10 10h40c5.522 0 10-4.478 10-10v-40c0-5.522-4.478-10-10-10zm-98.721-38.721c-5.514 0-10-4.486-10-10s4.486-10 10-10 10 4.486 10 10-4.486 10-10 10z"/><path d="m452.001 30c-16.542 0-30 13.458-30 30 0 4.626 1.054 9.009 2.932 12.926l-31.653 31.653v-15.858c0-5.522-4.478-10-10-10s-10 4.478-10 10v40c-.001 5.522 4.477 10 9.999 10h40c5.522 0 10-4.478 10-10s-4.478-10-10-10h-15.856l31.652-31.652c3.917 1.877 8.3 2.931 12.926 2.931 16.542 0 30-13.458 30-30s-13.458-30-30-30zm0 40c-5.514 0-10-4.486-10-10s4.486-10 10-10 10 4.486 10 10-4.486 10-10 10z"/><path d="m123.863 368.138h-40c-5.522 0-10 4.478-10 10s4.478 10 10 10h15.858l-16.794 16.794c-3.917-1.878-8.3-2.932-12.926-2.932-16.542 0-30 13.458-30 30s13.458 30 30 30 30-13.458 30-30c0-4.626-1.054-9.009-2.932-12.926l16.794-16.794v15.857c0 5.522 4.478 10 10 10s10-4.478 10-10v-40c0-5.522-4.477-9.999-10-9.999zm-53.862 73.862c-5.514 0-10-4.486-10-10s4.486-10 10-10 10 4.486 10 10-4.486 10-10 10z"/></g></svg>