<svg enable-background="new 0 0 418.715 418.715" height="512" viewBox="0 0 418.715 418.715" width="512" xmlns="http://www.w3.org/2000/svg"><path d="m402.94 223.821h-55.583c4.508-10.799 5-27.472-11.656-42.519-31.612-28.558-69.817-31.85-110.681-9.306-60.558 33.41-111.787 49.822-118.226 51.824h-91.021c-9.729.001-15.773 7.223-15.773 18.85s6.044 18.85 15.773 18.85h387.167c9.73 0 15.774-7.223 15.774-18.85.001-11.627-6.043-18.849-15.774-18.849zm-64.578-4.614c-7.052-8.987-22.351-22.855-49.617-22.855-4.864 0-9.396.607-13.671 1.618l-23.107-26.826c21.391-7.795 47.066-5.26 68.965 10.779 22.425 16.426 20.425 30.426 17.43 37.284zm-9.122 4.614h-84.665c1.792-1.054 22.005-17.391 44.17-17.469 21.666-.076 34.261 10.19 40.495 17.469zm-87.282-48.974 22.8 26.471c-5.732 2.359-10.981 5.303-15.926 8.261l-23.111-26.567c1.372-.746 12.248-6.47 16.237-8.165zm-25.289 12.995 23.478 26.987c-8.487 5.053-16.254 8.992-24.973 8.992h-78.248c19.647-7.474 48.012-19.335 79.743-35.979zm186.271 63.677h-387.167c-1.428 0-5.773 0-5.773-8.85 0-8.849 4.346-8.849 5.773-8.849h387.167c1.428 0 5.774 0 5.774 8.849.001 8.85-4.346 8.85-5.774 8.85z" fill="#094e69"/></svg>