<svg enable-background="new 0 0 493.661 493.661" height="512" viewBox="0 0 493.661 493.661" width="512" xmlns="http://www.w3.org/2000/svg"><g fill="#094e69"><path d="m178.912 383.429c-9.176 9.176-21.368 14.224-34.344 14.224-26.776 0-48.568-21.792-48.568-48.568 0-12.976 5.048-25.168 14.224-34.344l77.088-77.088-67.312-67.312-77.888 77.888c-27.16 27.152-42.112 63.256-42.112 101.656 0 79.272 64.496 143.768 143.768 143.768 38.4 0 74.504-14.952 101.656-42.112l77.888-77.888-67.312-67.312zm97.088 14.912-6.344-6.344-11.312 11.312 6.344 6.344-30.576 30.576c-24.136 24.136-56.224 37.424-90.344 37.424-70.448 0-127.768-57.32-127.768-127.768 0-34.128 13.288-66.208 37.424-90.344l30.576-30.576 30.344 30.344 11.312-11.312-30.344-30.344 24.688-24.688 44.688 44.688-24.688 24.688-6.344-6.344-11.312 11.312 6.344 6.344-29.776 29.776c-12.192 12.192-18.912 28.408-18.912 45.656 0 35.6 28.968 64.568 64.568 64.568 17.248 0 33.464-6.72 45.656-18.912l29.776-29.776 30.344 30.344 11.312-11.312-30.344-30.344 24.688-24.688 44.688 44.688z"/><path d="m200 149.653c26.472 0 48-21.528 48-48s-21.528-48-48-48-48 21.528-48 48 21.528 48 48 48zm0-80c17.648 0 32 14.352 32 32s-14.352 32-32 32-32-14.352-32-32 14.352-32 32-32z"/><path d="m408 149.653c0-26.472-21.528-48-48-48s-48 21.528-48 48 21.528 48 48 48 48-21.528 48-48zm-80 0c0-17.648 14.352-32 32-32s32 14.352 32 32-14.352 32-32 32-32-14.352-32-32z"/><path d="m400 229.653c-26.472 0-48 21.528-48 48s21.528 48 48 48 48-21.528 48-48-21.528-48-48-48zm0 80c-17.648 0-32-14.352-32-32s14.352-32 32-32 32 14.352 32 32-14.352 32-32 32z"/><path d="m207.993-.962h16v45.256h-16z" transform="matrix(.7071 .7071 -.7071 .7071 78.583 -146.3844)"/><path d="m228.402 25.688h79.191v16h-79.191z" transform="matrix(-.7071 .7071 -.7071 -.7071 481.3208 -131.9933)"/><path d="m275.994 61.383h16v56.559h-16z" transform="matrix(-.7071 -.7071 .7071 -.7071 421.4059 353.8781)"/><path d="m374.017 13.209h16v84.855h-16z" transform="matrix(.7071 .7071 -.7071 .7071 151.2311 -253.8316)"/><path d="m392.552 75.604h50.911v16h-50.911z" transform="matrix(-.7071 .7071 -.7071 -.7071 772.7001 -152.8547)"/><path d="m459.99 5.383h16v56.559h-16z" transform="matrix(.7071 .7071 -.7071 .7071 160.8746 -321.0594)"/><path d="m444.003 96.687h16v33.944h-16z" transform="matrix(.7071 .7071 -.7071 .7071 212.7573 -286.3245)"/><path d="m407.991 175.02h16v45.256h-16z" transform="matrix(-.7071 -.7071 .7071 -.7071 570.3827 631.5552)"/><path d="m455.994 171.714h16v67.879h-16z" transform="matrix(.7071 .7071 -.7071 .7071 281.3199 -267.8587)"/><path d="m459.032 249.647h33.944v16h-33.944z" transform="matrix(.7071 -.7071 .7071 .7071 -42.7653 412.0483)"/></g></svg>