<svg enable-background="new 0 0 512 512" height="512" viewBox="0 0 512 512" width="512" xmlns="http://www.w3.org/2000/svg"><g fill="#094e69"><path d="m358.4 55.467c-18.825 0-34.133 15.309-34.133 34.133v6.17l-199.441 79.77c-3.234 1.306-5.359 4.437-5.359 7.927v119.467c0 3.49 2.125 6.622 5.359 7.919l199.441 79.77v6.178c0 18.825 15.309 34.133 34.133 34.133s34.133-15.309 34.133-34.133v-307.201c0-18.825-15.308-34.133-34.133-34.133zm17.067 341.333c0 9.412-7.654 17.067-17.067 17.067s-17.067-7.654-17.067-17.067v-11.947c0-3.499-2.125-6.63-5.367-7.927l-199.433-79.77v-107.912l199.433-79.77c3.243-1.306 5.367-4.437 5.367-7.927v-11.947c0-9.412 7.654-17.067 17.067-17.067s17.067 7.654 17.067 17.067z"/><path d="m128 174.933h-59.733c-37.641 0-68.267 30.626-68.267 68.267s30.626 68.267 68.267 68.267h59.733c4.71 0 8.533-3.814 8.533-8.533v-119.467c0-4.711-3.823-8.534-8.533-8.534zm-8.533 119.467h-51.2c-28.237 0-51.2-22.963-51.2-51.2s22.963-51.2 51.2-51.2h51.2z"/><path d="m437.897 209.502-51.2-17.067c-2.611-.862-5.453-.427-7.689 1.178-2.227 1.604-3.541 4.181-3.541 6.921v85.333c0 2.739 1.314 5.316 3.541 6.929 1.476 1.058 3.226 1.604 4.992 1.604.905 0 1.818-.145 2.697-.444l51.2-17.067c3.49-1.152 5.837-4.412 5.837-8.09v-51.2c-.001-3.677-2.347-6.928-5.837-8.097zm-11.23 53.145-34.133 11.375v-61.653l34.133 11.375z"/><path d="m169.873 409.54-8.567-8.576-25.028-100.096c-.947-3.797-4.361-6.468-8.277-6.468h-68.268c-2.611 0-5.069 1.195-6.69 3.226-1.621 2.048-2.219 4.719-1.621 7.262l34.133 145.067c.93 3.917 4.42 6.579 8.303 6.579.538 0 1.075-.051 1.621-.162l64.085-12.373c.085-.017.171-.034.256-.051 3.755-.845 7.185-2.722 9.916-5.41 3.891-3.849 6.05-8.969 6.084-14.447.035-5.471-2.064-10.625-5.947-14.551zm-12.126 16.845c-.435.435-.981.734-1.579.887l-55.868 10.795-29.79-126.601h50.825l23.996 95.932c.375 1.502 1.152 2.876 2.244 3.968l10.206 10.206c.862.862.981 1.877.981 2.415-.008.521-.144 1.536-1.015 2.398z"/><path d="m460.8 234.667h51.2v17.067h-51.2z"/><path d="m457.249 145.084h49.757v17.066h-49.757z" transform="matrix(.8574 -.5146 .5146 .8574 -10.3129 270.0117)"/><path d="m473.655 307.917h17.067v49.758h-17.067z" transform="matrix(.5145 -.8575 .8575 .5145 -51.2652 575.049)"/><path d="m324.267 98.133h17.067v290.133h-17.067z"/><path d="m85.333 209.067h17.067v34.133h-17.067z"/><path d="m51.2 209.067h17.067v34.133h-17.067z"/></g></svg>