<svg enable-background="new 0 0 50 50" viewBox="0 0 50 50" xmlns="http://www.w3.org/2000/svg"><path d="m50 25c0-13.8-11.2-25-25-25s-25 11.2-25 25c0 5.1 1.5 9.9 4.2 13.8l.2.3c.2.2.3.4.5.6 0 .1.1.2.1.3.2.3.4.5.6.8l.2.2c1 1.2 2 2.2 3.2 3.2.1.1.1.1.2.2.2.2.5.4.8.6.1.1.2.2.3.2.2.2.5.4.7.5.1.1.3.2.4.3.3.2.7.4 1.1.6.2.1.5.3.8.4.2.1.3.2.5.2.3.1.5.3.8.4.1.1.3.1.4.2.3.1.6.3 1 .4.1 0 .2.1.3.1.9.3 1.8.6 2.8.9h.1c.4.1.8.2 1.3.3.1 0 .2 0 .3.1l.4.1h.3.1.1.1c.1 0 .3 0 .4.1.3 0 .7.1 1 .1h.2.2 1.4s1 0 1.4 0h.2.2c.3 0 .7-.1 1-.1.1 0 .3 0 .4-.1h.2.1.1.3l.5-.1c.1 0 .2 0 .3-.1.4-.1.8-.2 1.3-.3h.1c.9-.2 1.9-.5 2.8-.9.1 0 .2-.1.3-.1.3-.1.6-.3 1-.4.1-.1.3-.1.4-.2.3-.1.5-.3.8-.4.2-.1.3-.2.5-.2.3-.1.5-.3.8-.4.4-.2.7-.4 1.1-.6.1-.1.3-.2.4-.3.2-.2.5-.3.7-.5.1-.1.2-.2.3-.2.3-.2.5-.4.8-.6.1-.1.1-.1.2-.2 1.1-1 2.2-2 3.2-3.2.1-.1.1-.1.2-.2.2-.3.4-.5.6-.8.1-.1.1-.2.2-.3.2-.2.3-.4.5-.6l.2-.3c2.4-3.9 3.9-8.7 3.9-13.8zm-1.7 0c0 4.1-1.1 8-3 11.4-1.3-4.4-5.3-7.7-10-8h-.9-4-1c-.2 0-.3-.1-.3-.3v-.5c0-.2.1-.3.2-.3 5.4-2 8.7-10.4 8-16.2-.4-3-1.9-5.8-4.1-7.7 8.9 3.2 15.1 11.7 15.1 21.6zm-4.5 13.8c-.1.1-.1.2-.2.3-.2.2-.4.5-.6.7 0 0 0 0-.1.1-.7.8-1.4 1.6-2.2 2.3 0 0-.1.1-.1.1-.2.2-.5.4-.7.6-.1.1-.2.1-.2.2-.2.2-.5.4-.7.6-.1.1-.2.1-.2.2-.1.1-.3.2-.4.3v-4.2h-1.7v5.2s-.1 0-.1.1c-.2.1-.4.2-.6.4-.1.1-.3.2-.4.2-.3.1-.5.2-.8.4-.1.1-.2.1-.4.2-.3.1-.6.3-1 .4-.1 0-.1.1-.2.1-.8.3-1.7.6-2.6.8-.1 0-.1 0-.2 0-.4.1-.7.2-1.1.2-.1 0-.2 0-.3 0l-1.5-9.6h.7v-2.1l3.7 2.5 3.5-8.7c4.4.5 7.9 3.9 8.5 8.3.1.2 0 .3-.1.4zm-24.2 8.9c-.1 0-.1 0-.2 0-.9-.2-1.7-.5-2.6-.8-.1 0-.1-.1-.2-.1-.3-.1-.7-.3-1-.4-.1-.1-.3-.1-.4-.2-.3-.1-.5-.2-.8-.4-.1-.1-.3-.2-.4-.2-.2-.1-.4-.2-.6-.4 0 0-.1 0-.1-.1v-5.1h-1.7v4.1c-.1-.1-.3-.2-.4-.3s-.2-.1-.2-.2c-.2-.2-.5-.4-.7-.6-.1-.1-.2-.1-.2-.2-.2-.2-.5-.4-.7-.6 0 0-.1-.1-.1-.1-.8-.7-1.5-1.5-2.2-2.3 0 0 0 0-.1-.1-.2-.2-.4-.5-.6-.7-.1-.1-.1-.2-.2-.3s-.2-.3-.3-.4c.6-4.4 4.1-7.8 8.5-8.3l3.5 8.7 3.7-2.5v2.1h.7l-1.4 9.7c-.1 0-.2 0-.3-.1-.3 0-.7-.1-1-.2zm1.6-22c-4-1.5-7.1-8.3-7.1-13.2 0-.1 0-.2 0-.3l.6-.8c1.4-1.6 3.7-2.1 5.8-1.2.9.4 1.8.6 2.7.6 2.5 0 4.7-1.3 5.9-3.5 2.7.9 5 2.5 6.6 4.6.2 5.1-2.7 12.1-7 13.7-.8.3-1.3 1-1.3 1.9v.5c0 1 .7 1.8 1.6 1.9l-1.4 1.7h-5.3l-1.4-1.6c.9-.2 1.6-1 1.6-1.9v-.5c0-.9-.5-1.7-1.3-1.9zm3.8-24s.1 0 0 0c.4 0 .8 0 1.2.1 4.1.5 7.6 3.3 9 7.2-1.8-1.5-3.9-2.7-6.2-3.4l-.7-.2-.3.6c-.8 1.9-2.6 3.1-4.6 3.1-.7 0-1.4-.1-2-.4-2.3-1-4.8-.7-6.7.6.5-1.7 1.4-3.2 2.7-4.5 2-2 4.7-3.1 7.6-3.1zm3.3 31.8 2.9-3.5h2.5l-2.5 6.2-2.9-2zm-1.3 14.7c-.2 0-.5 0-.7.1-.4 0-.9 0-1.3 0h-.1c-.4 0-.8 0-1.2 0-.2 0-.4 0-.7-.1-.2 0-.3 0-.5 0l1.5-9.9h1.9l1.5 9.9c-.1 0-.3 0-.4 0zm-.3-11.5h-3.3v-1.5-1.8h3.3v1.8zm-5-3.2v.8l-2.9 2-2.6-6.3h2.5zm-5-30.3c-.2.1-.3.3-.5.4-2.4 2.4-3.7 5.5-3.7 8.8 0 5.5 3.5 13 8.2 14.7.1 0 .2.2.2.3v.6c0 .2-.1.3-.3.3h-1-4-.5c-.1 0-.2 0-.2 0-4.8.3-8.9 3.5-10.2 8-1.9-3.4-3-7.3-3-11.4 0-9.8 6.2-18.3 15-21.7z" fill="#00aeef"/></svg>