<svg enable-background="new 0 0 50 50" viewBox="0 0 50 50" xmlns="http://www.w3.org/2000/svg"><path d="m47.9 17.9h-2.1v-5.8h-1.7v-3.3h-23.2l-3-4.2h-15.6c-1.3 0-2.3 1-2.3 2.3v36.4c0 .5.1.9.4 1.3.4.5 1 .8 1.7.8h37.3c1 0 1.8-.6 2-1.5l8.6-23.4v-.1c0-1.4-.9-2.5-2.1-2.5zm-3.7 0h-6.7v-.8c0-.5-.4-.8-.8-.8-.5 0-.8.4-.8.8v.8h-4.2v-.8c0-.5-.4-.8-.8-.8-.5 0-.8.4-.8.8v.8h-4.2v-.8c0-.5-.4-.8-.8-.8-.5 0-.8.4-.8.8v.8h-4.3v-.8c0-.5-.4-.8-.8-.8-.5 0-.8.4-.8.8v.8h-4.2v-.8c0-.5-.4-.8-.8-.8s-.8.4-.8.8v.8h-1.9c-.1 0-.2 0-.4 0-.4.1-.8.3-1.1.5v-4.7h35zm-40 13.6v-12.7h4.7c-.2.2-.3.4-.3.7l-.3.7zm3.3-14.4h-2.2l.5-.5 1.7-1.7zm35-6.7v1.7h-34.5l-2.2 2.2v-3.8h16.3 20.4zm-40.8-3.5c0-.3.3-.6.6-.6h14.8l1.8 2.5h-14.7v7.2l-1.7 1.7v18.3l-.8 2.3zm38.2 36.5c-.1.2-.2.3-.5.3h-37.3c-.2 0-.3-.1-.4-.2s-.1-.2-.1-.3l.8-2.3 7.7-20.9v-.1c.1-.2.2-.3.5-.3h35.2 2.1c.3 0 .4.5.4.7z" fill="#094e69"/></svg>