<svg enable-background="new 0 0 50 50" viewBox="0 0 50 50" xmlns="http://www.w3.org/2000/svg"><g fill="#094e69"><path d="m49.1 37.7c0-.1.1-.1 0 0 .1 0 .1 0 0 0h.2s0 0 .1-.1 0 0 .1-.1 0 0 0-.1 0 0 0-.1 0 0 0-.1c0 0 0 0 0-.1 0 0 0 0 0-.1v-.1-23.5c0-.6-.5-1.1-1.1-1.1h-33.6s0 0-.1 0 0 0-.1 0c0 0 0 0-.1 0 0 0 0 0-.1 0 0 0 0 0-.1 0 0 0 0 0-.1 0s0 0-.1 0v.1.1.1.1 6.7c0 .6.5 1.1 1.1 1.1s1.1-.5 1.1-1.1v-4.3l9.6 8.5c-.1 0-.1.1-.1.1l-10 10.3v-7.1c0-.6-.5-1.1-1.1-1.1s-1.1.5-1.1 1.1v1.3h-5.5c-.6 0-1.1.5-1.1 1.1s.5 1.1 1.1 1.1h5.6v6.3c0 .6.5 1.1 1.1 1.1l34.3-.1c-.1 0 0 0 0 0zm-1.3-3.7-9.5-9.5 7.1-6.1c.5-.4.5-1.1.1-1.5-.4-.5-1.1-.5-1.5-.1l-12.1 10.3-14.3-12.6h30.2zm-20.9-8c.1-.1.1-.2.2-.3l4.1 3.6c.2.2.5.3.7.3s.5-.1.7-.3l4.1-3.5c0 .1.1.1.1.2l9.5 9.5h-28.9z"/><path d="m1.1 24.7h18.3c.6 0 1.1-.5 1.1-1.1s-.5-1.1-1.1-1.1h-18.3c-.6 0-1.1.5-1.1 1.1s.5 1.1 1.1 1.1z"/><path d="m3 18.7h8.2c.6 0 1.1-.5 1.1-1.1s-.5-1.1-1.1-1.1h-8.2c-.6 0-1.1.5-1.1 1.1s.5 1.1 1.1 1.1z"/><path d="m9 32.7h-8c-.6 0-1.1.5-1.1 1.1s.5 1.1 1.1 1.1h8c.6 0 1.1-.5 1.1-1.1s-.5-1.1-1.1-1.1z"/></g></svg>