<svg enable-background="new 0 0 50 50" viewBox="0 0 50 50" xmlns="http://www.w3.org/2000/svg"><g fill="#00aeef"><path d="m22.1 3.3h1.7v1.7h-1.7z"/><path d="m25.4 3.3h1.7v1.7h-1.7z"/><path d="m23.7 45h1.7v1.7h-1.7z"/><path d="m5.4 24.2h1.7v1.7h-1.7z"/><path d="m32.1 15h1.7v1.7h-1.7z"/><path d="m31.3 18.3h14.2v1.7h-14.2z"/><path d="m31.3 21.7h12.5v1.7h-12.5z"/><path d="m36.3 15h9.2v1.7h-9.2z"/><path d="m48.8 11.7h-8.3v-8.4c0-1.8-1.5-3.3-3.3-3.3h-25c-1.8 0-3.3 1.5-3.3 3.3v17.5h-7.6c-.5 0-.8.4-.8.8v13.4c0 .5.4.8.8.8h7.5v10.8c0 1.8 1.5 3.3 3.3 3.3h25c1.8 0 3.3-1.5 3.3-3.3v-18l2-2h6.3c.5 0 .8-.4.8-.8v-13.3c.1-.5-.3-.8-.7-.8zm-38.4-8.4c0-.9.7-1.7 1.7-1.7h25c.9 0 1.7.7 1.7 1.7v3.3h-28.4zm-8.3 30.9v-11.7h19.2v11.7h-4.2c-.2 0-.4.1-.6.2l-1.9 1.9-1.9-1.9c-.2-.2-.4-.2-.6-.2zm36.7 12.5c0 .9-.7 1.7-1.7 1.7h-25c-.9 0-1.7-.7-1.7-1.7v-3.3h28.3v3.3zm0-5h-28.4v-5.8h1.3l2.3 2.3c.3.3.9.3 1.2 0l2.3-2.3h4.7c.5 0 .8-.4.8-.8v-13.4c0-.5-.4-.8-.8-.8h-11.8v-12.6h28.3v3.3h-10.8c-.5 0-.8.4-.8.8v13.3c0 .5.4.8.8.8h8.8l2 2v13.2zm9.1-16.7h-5.8c-.2 0-.4.1-.6.2l-1.9 1.9-1.9-1.9c-.2-.2-.4-.2-.6-.2h-8.3v-11.7h19.2v11.7z"/><path d="m4.6 27.5h14.2v1.7h-14.2z"/><path d="m4.6 30.8h12.5v1.7h-12.5z"/><path d="m8.8 24.2h10v1.7h-10z"/></g></svg>