<svg enable-background="new 0 0 50 50" viewBox="0 0 50 50" xmlns="http://www.w3.org/2000/svg"><g fill="#094e69"><path d="m46.7 5h-43.4c-1.8 0-3.3 1.5-3.3 3.3v26.7c0 1.8 1.5 3.3 3.3 3.3h15l-.6 5.1h-1c-.4 0-.8.4-.8.8s.4.8.8.8h16.7c.4 0 .8-.4.8-.8s-.4-.8-.8-.8h-1l-.6-5.1h15c1.8 0 3.3-1.5 3.3-3.3v-26.7c-.1-1.8-1.6-3.3-3.4-3.3zm-27.5 38.4.6-5.1h10.3l.6 5.1zm29.2-8.4c0 .9-.8 1.7-1.7 1.7h-43.4c-.9 0-1.7-.8-1.7-1.7v-26.7c0-.9.8-1.7 1.7-1.7h43.4c.9 0 1.7.8 1.7 1.7z"/><path d="m45.9 8.4h-41.8c-.4 0-.8.4-.8.8v25.1c0 .4.4.8.8.8h41.8c.4 0 .8-.4.8-.8v-25.2c0-.4-.4-.7-.8-.7zm-.8 25h-40.2v-23.5h40.2z"/><path d="m24.2 11.7h-15c-1.4 0-2.5 1.1-2.5 2.5v15c0 1.4 1.1 2.5 2.5 2.5h15c1.4 0 2.5-1.1 2.5-2.5v-15c-.1-1.4-1.2-2.5-2.5-2.5zm-5.8 18.4h-3.4v-1l.5.3c.4.2.8.4 1.3.4.4 0 .9-.1 1.3-.4l.5-.3zm.8-3.4-2.1 1.3c-.3.2-.6.2-.9 0l-2.1-1.3c-.5-.3-.8-.9-.8-1.5v-2.8s0-.1.1-.1c3.1-.2 4.8-.8 5.8-1.4l.8 1.1v1.3c0 .9-.8 1.7-1.7 1.7h-1.7c-.4 0-.8.4-.8.8s.4.8.8.8h1.7c.5 0 .9-.1 1.3-.3-.1.2-.2.3-.4.4zm.7 3.4v-1.9h.1c1-.6 1.6-1.7 1.6-2.8v-3.4c0-.4-.2-.8-.5-1.1l-1.4-1.4c-.1-.1-.3-.2-.6-.2s-.4.1-.6.2c-.8.8-2.8 1.3-5.4 1.4-.9 0-1.5.8-1.5 1.6v2.8c0 1.1.6 2.2 1.6 2.8h.1v1.9h-2.6c0-5.1.4-8.4 1.3-10.6.9-2.5 2.4-3.7 4.6-3.7s3.7 1.1 4.6 3.7c.8 2.3 1.2 5.6 1.3 10.6h-2.6zm5.2-.9c0 .5-.4.9-.9.9h-.1c0-5.3-.5-8.7-1.4-11.2-1.2-3.2-3.2-4.7-6.1-4.7s-4.9 1.5-6.1 4.7c-.9 2.5-1.3 5.9-1.4 11.2-.5 0-.9-.4-.9-.9v-15c0-.5.4-.9.9-.9h15c.5 0 .9.4.9.9z"/><path d="m31.7 13.4h-1.7c-.4 0-.8.4-.8.8s.4.8.8.8h1.7c.4 0 .8-.4.8-.8 0-.5-.4-.8-.8-.8z"/><path d="m31.7 16.7h-1.7c-.4 0-.8.4-.8.8s.4.8.8.8h1.7c.4 0 .8-.4.8-.8s-.4-.8-.8-.8z"/><path d="m31.7 20h-1.7c-.4 0-.8.4-.8.8s.4.8.8.8h1.7c.4 0 .8-.4.8-.8s-.4-.8-.8-.8z"/><path d="m41.7 13.4h-6.7c-.4 0-.8.4-.8.8s.4.8.8.8h6.7c.4 0 .8-.4.8-.8 0-.5-.4-.8-.8-.8z"/><path d="m41.7 16.7h-6.7c-.4 0-.8.4-.8.8s.4.8.8.8h6.7c.4 0 .8-.4.8-.8s-.4-.8-.8-.8z"/><path d="m41.7 20h-6.7c-.4 0-.8.4-.8.8s.4.8.8.8h6.7c.4 0 .8-.4.8-.8s-.4-.8-.8-.8z"/><path d="m40.9 23.4h-10c-.9 0-1.6.7-1.6 1.6v5c0 .9.7 1.6 1.6 1.6h10c.9 0 1.6-.7 1.6-1.6v-5c0-.9-.7-1.6-1.6-1.6zm0 6.6s0 .1 0 0l-10.1.1s-.1 0-.1-.1v-5s0-.1.1-.1h10s.1 0 .1.1z"/></g></svg>