<svg enable-background="new 0 0 512 512" height="512" viewBox="0 0 512 512" width="512" xmlns="http://www.w3.org/2000/svg"><g fill="#094e69"><path d="m86.492 432.205-28.49 26.117v45.594h16.168v-38.482l23.248-21.31z"/><path d="m147.136 432.205-10.926 11.919 23.248 21.31v38.482h16.169v-45.594z"/><path d="m140.91 358.939c0 4.671-.981 7.973-2.917 9.821-4.088 3.899-26.873 2.828-29.196 2.828v16.168c1.943 0 19.981.383 22.412.121v17.502c0 7.974-6.488 14.462-14.462 14.462s-14.462-6.488-14.462-14.462v-16.259h-16.169v16.258c0 16.89 13.741 30.631 30.631 30.631s30.63-13.741 30.63-30.631v-23.403c.607-.474 1.204-.971 1.776-1.518 5.258-5.017 7.925-12.257 7.925-21.518z"/><path d="m225.541 432.205-28.491 26.117v45.594h16.168v-38.482l23.248-21.31z"/><path d="m286.184 432.205-10.925 11.919 23.248 21.31v38.482h16.168v-45.594z"/><path d="m279.958 358.939c0 4.671-.981 7.973-2.917 9.821-4.087 3.899-26.873 2.828-29.196 2.828v16.168c1.943 0 19.981.383 22.412.121v17.502c0 7.974-6.488 14.462-14.462 14.462s-14.462-6.488-14.462-14.462v-16.259h-16.168v16.258c0 16.89 13.741 30.631 30.631 30.631s30.631-13.741 30.631-30.631v-23.403c.607-.474 1.204-.971 1.776-1.518 5.258-5.017 7.925-12.257 7.925-21.518z"/><path d="m364.589 432.205-28.491 26.117v45.594h16.169v-38.482l23.248-21.31z"/><path d="m425.233 432.205-10.926 11.919 23.248 21.31v38.482h16.169v-45.594z"/><path d="m419.007 358.939c0 4.671-.981 7.973-2.917 9.821-4.088 3.899-26.873 2.828-29.196 2.828v16.168c1.943 0 19.981.383 22.412.121v17.502c0 7.974-6.488 14.462-14.462 14.462s-14.462-6.488-14.462-14.462v-16.259h-16.168v16.258c0 16.89 13.741 30.631 30.631 30.631s30.63-13.741 30.63-30.631v-23.403c.607-.474 1.204-.971 1.776-1.518 5.258-5.017 7.925-12.257 7.925-21.518z"/><path d="m248.25 93.238h16.168v16.168h-16.168z"/><path d="m248.25 120.185h16.168v52.817h-16.168z"/><path d="m280.497 8.084c0 4.671-.981 7.973-2.917 9.821-4.087 3.9-26.873 2.828-29.196 2.828v16.168c1.943 0 19.981.383 22.412.121v17.502c0 7.974-6.488 14.462-14.462 14.462s-14.462-6.488-14.462-14.462v-16.259h-16.168v16.258c.001 16.89 13.741 30.631 30.631 30.631s30.63-13.741 30.63-30.631v-23.403c.607-.474 1.204-.971 1.776-1.518 5.258-5.017 7.925-12.257 7.925-21.518z"/><path d="m315.214 178.929v-71.462l-28.491-26.117-10.925 11.919 23.248 21.31v64.35h-86.367v-64.35l23.248-21.31-10.925-11.919-28.491 26.117v71.462h-67.368v48.506h22.259l10.111 111.216h16.101l-11.447-127.385h-20.856v-16.168h220.968v16.168h-20.856l-11.447 127.385h16.102l10.11-111.216h22.26v-48.506z"/><path d="m183.242 50.978v-40.199h-183.242v123.958h183.242v-39.635l24.509-23.19zm-16.168 37.163v30.428h-150.906v-91.622h150.905v31.484l16.503 14.095z"/><path d="m39.905 65.286h16.168v16.168h-16.168z"/><path d="m128.292 65.286h16.168v16.168h-16.168z"/><path d="m84.098 65.286h16.168v16.168h-16.168z"/><path d="m328.758 16.168v40.199l-24.508 20.934 24.508 23.19v39.635h183.242v-123.958zm167.074 107.79h-150.906v-30.428l-16.503-15.614 16.503-14.095v-31.484h150.905v91.621z"/><path d="m368.498 69.818h16.168v16.168h-16.168z"/><path d="m412.691 69.818h16.168v16.168h-16.168z"/><path d="m456.885 69.818h16.168v16.168h-16.168z"/></g></svg>