<svg enable-background="new 0 0 512 512" height="512" viewBox="0 0 512 512" width="512" xmlns="http://www.w3.org/2000/svg"><g fill="#094e69"><path d="m503.983 4.276h-247.983-247.983c-4.428 0-8.017 3.589-8.017 8.016v102.614 384.802c0 4.427 3.589 8.017 8.017 8.017h247.983 247.983c4.427 0 8.017-3.589 8.017-8.017v-384.802-102.614c0-4.427-3.589-8.016-8.017-8.016zm-8.016 487.415h-239.967-239.967v-368.768h239.967 239.967zm0-384.802h-239.967-239.967v-86.58h239.967 239.967z"/><path d="m427.023 38.48h-94.063c-4.427 0-8.017 3.589-8.017 8.017 0 4.427 3.589 8.017 8.017 8.017h94.063c4.427 0 8.017-3.589 8.017-8.017 0-4.427-3.59-8.017-8.017-8.017z"/><path d="m469.779 38.48h-17.102c-4.427 0-8.017 3.589-8.017 8.017 0 4.427 3.589 8.017 8.017 8.017h17.102c4.427 0 8.017-3.589 8.017-8.017-.001-4.427-3.59-8.017-8.017-8.017z"/><path d="m264.551 29.929c-3.835 0-7.612.647-11.222 1.924-.009.003-.016.008-.025.01-13.412 4.754-22.423 17.504-22.423 31.737 0 14.232 9.011 26.982 22.422 31.737.009.003.016.008.025.011 3.611 1.276 7.387 1.924 11.222 1.924 18.566 0 33.67-15.105 33.67-33.67s-15.103-33.673-33.669-33.673zm0 51.307c-2.011 0-3.988-.339-5.88-1.007-.001 0-.002-.001-.003-.001-7.03-2.488-11.754-9.17-11.754-16.629s4.723-14.14 11.755-16.629c.001 0 .002 0 .003-.001 1.891-.669 3.869-1.007 5.88-1.007 9.725 0 17.637 7.912 17.637 17.637s-7.913 17.637-17.638 17.637z"/><path d="m170.489 29.929c-18.566 0-33.67 15.105-33.67 33.67s15.105 33.67 33.67 33.67 33.67-15.104 33.67-33.67-15.105-33.67-33.67-33.67zm0 51.307c-9.725 0-17.637-7.912-17.637-17.637s7.912-17.637 17.637-17.637 17.637 7.912 17.637 17.637-7.913 17.637-17.637 17.637z"/><path d="m76.426 29.929c-18.566 0-33.67 15.105-33.67 33.67s15.105 33.67 33.67 33.67 33.67-15.104 33.67-33.67-15.104-33.67-33.67-33.67zm0 51.307c-9.725 0-17.637-7.912-17.637-17.637s7.912-17.637 17.637-17.637 17.637 7.912 17.637 17.637-7.912 17.637-17.637 17.637z"/><path d="m480.454 214.537-84.651-84.653c-3.131-3.131-8.207-3.131-11.338 0l-53.965 53.966h-74.5-183.85c-4.427 0-8.017 3.589-8.017 8.017s3.589 8.017 8.017 8.017h183.85 58.466l-64.135 64.135-56.65 56.65h-121.531c-4.427 0-8.017 3.589-8.017 8.017s3.589 8.017 8.017 8.017h105.497l-17.278 17.278c-.009.009-.017.017-.027.027l-.014.014c-.025.025-.045.051-.069.077-.159.164-.314.332-.461.51-.055.065-.1.135-.153.202-.108.14-.216.28-.315.429-.065.097-.122.199-.183.299-.074.122-.151.243-.218.37-.068.128-.127.26-.188.39-.049.105-.102.207-.146.315-.067.162-.124.329-.181.495-.028.082-.06.161-.086.245-.064.212-.117.426-.162.642-.009.042-.022.081-.031.123l-.005.025c-.002.01-.004.019-.005.029l-19.862 99.316h-66.113c-4.427 0-8.017 3.589-8.017 8.017 0 4.427 3.589 8.017 8.017 8.017h72.641c.012 0 .023.001.036.001h.009.009c.012 0 .024-.001.036-.001h6.276c2.139 0 4.077-.843 5.514-2.208l35.038-7.008c.005-.001.01-.002.015-.003l.032-.006 60.415-12.083c.007-.001.015-.003.023-.004l.028-.005c.047-.01.091-.025.138-.035.21-.046.419-.096.625-.158.088-.027.171-.061.258-.09.161-.056.324-.11.482-.175.112-.047.219-.102.328-.153.126-.059.253-.115.377-.182.13-.07.253-.148.378-.223.097-.059.197-.114.291-.177.149-.099.29-.208.431-.316.066-.051.136-.097.201-.152.175-.144.341-.297.503-.455.027-.027.057-.048.082-.075l.016-.016c.009-.009.017-.016.025-.025l5.309-5.309 110.306-110.306 48.015-48.015 60.465-60.465c3.132-3.136 3.132-8.212.002-11.342zm-277.785 119.816c.001-.001.002-.002.003-.002l58.998-58.998 68-68 15.872 15.873-152.334 152.334-15.873-15.873zm154.209-99.789 18.896 18.896-69.556 69.556-55.886 55.886-26.891 26.891-18.896-18.896zm-201.823 220.719 3.774-18.869 15.095 15.095zm37.764-7.552-30.211-30.211 8.314-41.57 16.618 16.618 30.233 30.233 16.618 16.617zm167.818-124.715-109.987 109.986-15.873-15.872 26.891-26.891 55.886-55.886 69.556-69.556 15.872 15.872zm53.683-53.684-21.54-21.54-30.234-30.233-21.54-21.541 49.129-49.128 73.314 73.314z"/><path d="m394.211 169.096c-3.13-3.131-8.207-3.131-11.337 0l-19.24 19.24c-3.131 3.131-3.131 8.207 0 11.337 1.565 1.565 3.617 2.348 5.668 2.348s4.103-.782 5.668-2.348l19.24-19.24c3.132-3.131 3.132-8.208.001-11.337z"/></g></svg>