<svg enable-background="new 0 0 344.445 344.445" height="512" viewBox="0 0 344.445 344.445" width="512" xmlns="http://www.w3.org/2000/svg"><path d="m254.557 221.867-43.444-9.656v-13.728c16.211-11.7 26.944-30.472 27.661-51.778 14.383-15.178 22.339-34.911 22.339-55.911v-24.127c0-14.072-10.517-25.733-24.106-27.539-11.65-23.878-35.878-39.128-62.65-39.128h-9.35c-18.072 0-35.878 6.111-50.144 17.206-20.04 15.583-31.529 39.083-31.529 64.466v9.128c0 20.994 7.956 40.733 22.339 55.911.722 21.306 11.45 40.078 27.661 51.778v13.728l-43.444 9.65c-33.3 7.4-56.556 36.383-56.556 70.5v52.078h116.183 45.411 116.183v-52.078c.001-34.117-23.254-63.1-56.554-70.5zm-38.573 2.805-8.478 38.144-26.2-18.711 25.711-21.428zm-43.761 12.539-27.778-23.15v-9.089c8.467 3.9 17.856 6.139 27.778 6.139s19.311-2.239 27.778-6.139v9.089zm-66.667-142.766v34.239c-7.206-11.211-11.111-24.239-11.111-37.889v-9.123c0-21.928 9.928-42.228 27.239-55.694 12.322-9.589 27.711-14.867 43.322-14.867h9.35c23.478 0 44.622 13.944 53.872 35.522l1.445 3.367h3.661c9.189 0 16.667 7.478 16.667 16.667v24.128c0 13.65-3.906 26.678-11.111 37.889v-45.35h-7.75c-10.683 0-20.594-5.306-26.517-14.194l-1.65-2.472h-11.678l-1.617 2.694c-9.278 15.472-26.256 25.083-44.294 25.083zm11.112 49.999v-38.889h28.717c20.756 0 40.356-10.472 51.956-27.544 7.428 9.472 18.439 15.372 30.439 16.306v50.128c0 30.633-24.922 55.556-55.556 55.556s-55.556-24.923-55.556-55.557zm20.755 78.239 25.711 21.428-26.2 18.711-8.478-38.144zm13.022 110.65h-50.444v-22.222h-11.111v22.222h-44.445v-40.967c0-28.861 19.678-53.394 47.85-59.65l25.317-5.628 12.122 54.539 19.206-13.722 6.422 6.422zm32.406 0h-21.256l5.267-63.217-8.761-8.761 14.122-10.083 14.122 10.089-8.761 8.761zm117.15 0h-44.444v-22.222h-11.111v22.222h-50.445l-4.917-59.006 6.422-6.422 19.206 13.722 12.122-54.539 25.317 5.628c28.172 6.256 47.85 30.789 47.85 59.65z" fill="#094e69"/></svg>