<svg enable-background="new 0 0 512 512" height="512" viewBox="0 0 512 512" width="512" xmlns="http://www.w3.org/2000/svg"><g fill="#094e69"><path d="m488 8h-464c-13.255 0-24 10.745-24 24v352c0 4.418 3.582 8 8 8h182.24l-12.8 64h-17.44c-4.418 0-8 3.582-8 8v24h-16v16h240v-16h-16v-24c0-4.418-3.582-8-8-8h-17.453l-12.8-64h182.253c4.418 0 8-3.582 8-8v-352c0-13.255-10.745-24-24-24zm-160 464h16v16h-176v-16h16zm-134.24-16 12.788-64h98.892l12.8 64zm302.24-80h-480v-72h112 48 48 48 48 64 112zm-112-296h-64c-4.418 0-8 3.582-8 8v72h16v-64h48v32h-32v16h32v40h-32v16h32v40h-32v16h32v32h-48v-64h-16v64h-32v-40c0-32.648 39.648-39.824 41.312-40.112.986-.165 1.932-.513 2.79-1.027 3.791-2.27 5.024-7.183 2.754-10.973l-72-120c-.58-.846-1.311-1.577-2.157-2.157-3.786-2.595-8.96-1.63-11.555 2.157l-72 120c-.511.852-.859 1.792-1.025 2.772-.741 4.356 2.189 8.487 6.545 9.228 1.688.288 41.336 7.464 41.336 40.112v40h-32v-64h-16v64h-8v-144h8v16h16v-24c.002-1.084-.218-2.157-.648-3.152l-24-56c-.809-1.886-2.312-3.389-4.198-4.198-4.06-1.742-8.764.138-10.506 4.198l-24 56c-.43.995-.65 2.068-.648 3.152v152h-64v-224h400v224h-64v-200c0-4.418-3.582-8-8-8zm-152 184v-8h32v8zm32 16v8h-32v-8zm-32.584-40c-3.832-25.44-25.616-39.2-43.04-45.08l51.624-86.035v67.115h16v-67.115l51.624 86.035c-17.44 5.84-39.208 19.64-43.04 45.08zm-91.301-112 11.885-27.728 11.885 27.728zm3.885 16v144h-8v-144zm352 144h-24v-232c0-4.418-3.582-8-8-8h-416c-4.418 0-8 3.582-8 8v232h-24v-256c0-4.418 3.582-8 8-8h464c4.418 0 8 3.582 8 8z"/><path d="m256 312c-13.255 0-24 10.745-24 24s10.745 24 24 24 24-10.745 24-24-10.745-24-24-24zm0 32c-4.418 0-8-3.582-8-8s3.582-8 8-8 8 3.582 8 8-3.582 8-8 8z"/></g></svg>