<svg enable-background="new 0 0 480 480" height="512" viewBox="0 0 480 480" width="512" xmlns="http://www.w3.org/2000/svg"><g fill="#094e69"><path d="m339.904 161.776-5.136-16.904c-6.524-19.202-27.379-29.479-46.581-22.955-10.802 3.67-19.285 12.153-22.955 22.955l-5.136 16.904c-4.322 14.256-5.229 29.329-2.648 44 2.354 12.352 10.196 22.964 21.312 28.84l-5.752 128.584c-.77 7.177 1.558 14.342 6.4 19.696 10.413 11.39 28.089 12.182 39.479 1.769.616-.563 1.206-1.153 1.769-1.769 4.734-5.202 7.058-12.157 6.4-19.16l-5.784-129.136c11.101-5.879 18.93-16.484 21.28-28.824 2.581-14.671 1.674-29.744-2.648-44zm-13.112 41.216c-1.732 8.874-8.056 16.155-16.6 19.112-3.243 1.219-5.332 4.387-5.176 7.848l6.08 135.048c.28 2.649-.594 5.29-2.4 7.248-4.817 4.769-12.575 4.769-17.392 0-1.896-2.116-2.757-4.964-2.352-7.776l6.032-134.52c.156-3.461-1.933-6.629-5.176-7.848-8.544-2.957-14.868-10.238-16.6-19.112-2.14-12.18-1.386-24.693 2.2-36.528l5.136-16.912c3.974-10.745 15.906-16.234 26.652-12.26 5.681 2.101 10.159 6.58 12.26 12.26l5.136 16.912c3.582 11.836 4.336 24.348 2.2 36.528z"/><path d="m216 120c-4.418 0-8 3.582-8 8v68.688l-21.656 21.656c-1.602 1.596-2.454 3.797-2.344 6.056l7 140c.167 3.019-.929 5.972-3.024 8.152-4.379 4.418-11.511 4.45-15.93.07-.024-.023-.047-.047-.07-.07-2.096-2.18-3.191-5.133-3.024-8.152l7.048-140c.112-2.258-.737-4.458-2.336-6.056l-21.664-21.656v-68.688c0-4.418-3.582-8-8-8s-8 3.582-8 8v72c0 2.122.844 4.156 2.344 5.656l21.488 21.496-6.824 136.472c-.726 14.907 10.77 27.581 25.677 28.307s27.581-10.77 28.307-25.677c.043-.876.043-1.753 0-2.629l-6.824-136.472 21.488-21.496c1.5-1.5 2.344-3.534 2.344-5.656v-72c0-4.419-3.582-8.001-8-8.001z"/><path d="m168 120c-4.418 0-8 3.582-8 8v64c0 4.418 3.582 8 8 8s8-3.582 8-8v-64c0-4.418-3.582-8-8-8z"/><path d="m192 120c-4.418 0-8 3.582-8 8v64c0 4.418 3.582 8 8 8s8-3.582 8-8v-64c0-4.418-3.582-8-8-8z"/><path d="m240 0c-132.548 0-240 107.452-240 240s107.452 240 240 240 240-107.452 240-240c-.15-132.486-107.514-239.85-240-240zm0 464c-123.712 0-224-100.288-224-224s100.288-224 224-224 224 100.288 224 224c-.141 123.653-100.347 223.859-224 224z"/><path d="m265.969 390.172c-.429-4.397-4.342-7.614-8.74-7.185-.103.01-.206.022-.309.036l.032-.008c-11.263 1.308-22.641 1.308-33.904 0-4.39-.515-8.365 2.626-8.88 7.016s2.626 8.365 7.016 8.88c12.491 1.459 25.109 1.459 37.6 0 4.397-.428 7.614-4.341 7.185-8.739z"/><path d="m362.4 136.912c-2.839-3.385-7.885-3.828-11.27-.988-.011.009-.022.019-.034.028-3.377 2.848-3.807 7.894-.96 11.272 48.235 57.26 44.545 141.929-8.488 194.776-3.13 3.119-3.139 8.186-.02 11.316s8.186 3.139 11.316.02c58.937-58.713 63.047-152.795 9.456-216.424z"/><path d="m186.392 105.744c-.005 0-.01-.001-.015-.001-.008 0-.016.001-.025.001z"/><path d="m277.736 84.472c-31.265-7.493-64.055-5.479-94.168 5.784-4.136 1.555-6.227 6.169-4.672 10.304 1.172 3.117 4.152 5.18 7.481 5.183.957-.005 1.905-.18 2.799-.519 27.118-10.141 56.646-11.952 84.8-5.2 4.295 1.038 8.618-1.601 9.656-5.896s-1.601-8.618-5.896-9.656z"/><path d="m137.992 341.6c-26.969-26.923-42.084-63.492-41.992-101.6-.079-30.446 9.565-60.122 27.528-84.704 2.655-3.532 1.944-8.547-1.588-11.202s-8.547-1.944-11.202 1.588c-.047.063-.093.126-.138.19-46.253 63.588-39.447 151.359 16.056 207.056 3.128 3.13 8.202 3.132 11.332.004s3.132-8.202.004-11.332z"/></g></svg>