<svg enable-background="new 0 0 50 50" viewBox="0 0 50 50" xmlns="http://www.w3.org/2000/svg"><path d="m48.3 38.4c2.3-2.3 2.3-6 0-8.3s-6-2.3-8.3 0l-3.1 3.1c-.9.9-2.3.9-3.2 0l-5.6-5.6c-.3-.3-.8-.5-1.3-.5s-1 .2-1.3.5c-1.5 1.5-3.6 2.4-5.7 2.4s-4.2-.8-5.7-2.4l-5.1-5.1 11.5-11.5 5.1 5.1c1.4 1.4 2.2 3.3 2.4 5.3.1 1 .9 1.7 1.8 1.7h.1c1-.1 1.8-.9 1.7-1.9-.2-2.9-1.4-5.6-3.4-7.6l-5.2-5.1.6-.6c.7-.7.7-1.9 0-2.6s-1.9-.7-2.6 0l-3.6 3.6-6.2-6.2c-.8-.7-2-.7-2.7 0s-.7 1.9 0 2.6l6.2 6.2-5.4 5.4-6.2-6.2c-.7-.7-1.9-.7-2.6 0-.7.7-.7 1.9 0 2.6l6.3 6.2-3.6 3.6c-.7.7-.7 1.9 0 2.6.4.4.8.5 1.3.5s.9-.2 1.3-.5l.6-.6 5.1 5.1c2.2 2.2 5.2 3.4 8.3 3.4 2.5 0 4.9-.8 6.9-2.3l4.4 4.4c1.2 1.2 2.7 1.7 4.2 1.7s3-.6 4.2-1.7l3.1-3.1c.9-.9 2.3-.9 3.2 0s.9 2.3 0 3.2l-3.3 3.2c-1.1 1.1-1.7 2.6-1.7 4.2s.6 3.1 1.7 4.2c.4.4.8.5 1.3.5s.9-.2 1.3-.5c.7-.7.7-1.9 0-2.6-.4-.4-.7-1-.7-1.6s.2-1.2.7-1.6z" fill="#094e69"/></svg>