<svg enable-background="new 0 0 496 496" height="512" viewBox="0 0 496 496" width="512" xmlns="http://www.w3.org/2000/svg"><g fill="#00aeef"><path d="m432 336h-10.84c16.344-13.208 26.84-33.392 26.84-56v-32c0-30.872-25.128-56-56-56h-32c-8.592 0-16.712 2.008-24 5.48v-69.48h-16v-32h16v-96h-336v96h16v32h-16v96h16v32h-16v96h277.808c-13.336 11.736-21.808 28.88-21.808 48v96h56 8 112 8 56v-96c0-35.288-28.712-64-64-64zm-9.416 35.328-32.472 13.92 22.168-33.248h5.472zm-63.64-19.328h34.112l-17.056 25.576zm2.936 33.248-32.472-13.92 4.832-19.328h1.76 3.72zm70.128-105.248c-.008 30.872-25.136 56-56.008 56s-56-25.128-56-56h37.424c14.12 0 27.392-5.504 37.368-15.48l4.128-4.128c8.304 10.272 20.112 16.936 33.088 18.92zm-72.008-72h32c22.056 0 40 17.944 40 40v15.072c-9.168-2.032-17.32-7.48-22.656-15.48l-8.104-12.152-17.768 17.768c-6.96 6.96-16.208 10.792-26.048 10.792h-37.424v-16c0-22.056 17.944-40 40-40zm-344-192h304v64h-304zm256 96v16h-16v-16h-16v16h-16v-16h-16v16h-16v-16h-16v16h-16v-16h-16v16h-16v-16h-16v16h-16v-16h-16v16h-16v-16h-16v16h-16v-32h272v32h-16v-16zm-256 32h304v64h-304zm256 96v16h-16v-16h-16v16h-16v-16h-16v16h-16v-16h-16v16h-16v-16h-16v16h-16v-16h-16v16h-16v-16h-16v16h-16v-16h-16v16h-16v-32h272v24 8h-16v-16zm-256 96v-64h288v8c0 17.096 6.016 32.792 16 45.16v10.84zm288 144h-32v-32h32zm176 0h-32v-32h32zm0-48h-32v-32h-16v80h-112v-80h-16v32h-32v-32c0-25.704 20.32-46.688 45.728-47.888l-7.144 28.56 65.416 28.032 65.416-28.032-7.144-28.56c25.408 1.2 45.728 22.184 45.728 47.888z"/><path d="m416 160h16v16h-16z"/><path d="m416 128h16v16h-16z"/><path d="m416 96h16v16h-16z"/><path d="m384 96h16v16h-16z"/><path d="m352 96h16v16h-16z"/><path d="m160 432h16v16h-16z"/><path d="m160 400h16v16h-16z"/><path d="m160 368h16v16h-16z"/><path d="m224 432h16v16h-16z"/><path d="m192 432h16v16h-16z"/></g></svg>