<svg enable-background="new 0 0 487.992 487.992" height="512" viewBox="0 0 487.992 487.992" width="512" xmlns="http://www.w3.org/2000/svg"><g fill="#094e69"><path d="m207.677 17.656 8.64 13.472c31.601-19.796 71.735-19.796 103.336 0l8.64-13.472c-36.759-23.541-83.857-23.541-120.616 0z"/><path d="m171.997 111.992h-16c-.023 14.801 2.909 29.458 8.624 43.112l14.768-6.176c-4.9-11.696-7.413-24.254-7.392-36.936z"/><path d="m304.893 200.608c-11.683 4.898-24.228 7.408-36.896 7.384v16c14.793.028 29.443-2.901 43.088-8.616z"/><path d="m363.997 111.992c.022 12.673-2.489 25.223-7.384 36.912l14.768 6.176c5.714-13.645 8.643-28.295 8.616-43.088z"/><path d="m267.997 31.992c-44.183 0-80 35.817-80 80s35.817 80 80 80c44.163-.049 79.952-35.837 80-80 0-44.182-35.817-80-80-80zm0 144c-35.346 0-64-28.654-64-64s28.654-64 64-64 64 28.654 64 64c-.04 35.33-28.67 63.961-64 64z"/><path d="m285.597 109.44-9.6-3.2v-20.528c4.456 1.555 7.587 5.578 8 10.28h16c-.715-13.501-10.676-24.711-24-27.008v-4.992h-16v4.992c-13.324 2.297-23.285 13.507-24 27.008.314 8.636 6.112 16.106 14.4 18.552l9.6 3.2v20.512c-4.451-1.553-7.581-5.568-8-10.264h-16c.715 13.501 10.676 24.711 24 27.008v4.992h16v-4.992c13.324-2.297 23.285-13.507 24-27.008-.314-8.636-6.112-16.105-14.4-18.552zm-25.6-8.528-4.56-1.536c-2.024-.68-3.44-2.072-3.44-3.384.413-4.702 3.544-8.725 8-10.28zm16 37.36v-15.2l4.56 1.536c2.024.68 3.44 2.072 3.44 3.384-.413 4.702-3.544 8.725-8 10.28z"/><path d="m481.653 330.336-26.344-26.344 26.344-26.344c3.123-3.124 3.123-8.188 0-11.312l-104-104c-3.124-3.123-8.188-3.123-11.312 0l-102.344 102.344-110.344-110.344c-3.124-3.123-8.188-3.123-11.312 0l-104 104c-3.123 3.124-3.123 8.188 0 11.312l58.344 58.344h-92.688v16h104c1.084.003 2.157-.218 3.152-.648l54.488-23.352h118.36v32h-88c-4.418 0-8 3.581-8 8 0 3.121 1.815 5.957 4.648 7.264l104 48c2.617 1.19 5.671.885 8-.8l138.552-99.984 21.064 21.064-159.224 136.456h-43.608l-150.664-55.504c-.886-.327-1.823-.495-2.768-.496h-104v16h102.568l150.664 55.504c.886.328 1.823.495 2.768.496h48c1.909.002 3.754-.682 5.2-1.928l168-144c3.355-2.875 3.745-7.925.87-11.28-.132-.154-.27-.304-.414-.448zm-317.656-26.344c-1.084-.003-2.157.217-3.152.648l-1.944.8c7.899-20.498 30.92-30.712 51.418-22.813 9.978 3.845 17.987 11.546 22.222 21.365zm85.64 0c-7.004-23.772-28.858-40.068-53.64-40-28.31.17-52.1 21.314-55.592 49.408l-24.984 10.704-60.112-60.112 92.688-92.688 132.688 132.688zm49.472 94.776-66.688-30.776h59.576c4.418 0 8-3.582 8-8v-36.688l43.44 43.44zm1.64-97.336c3.03-17.077 17.904-29.501 35.248-29.44 19.838-.036 35.949 16.016 35.986 35.854.032 17.358-12.354 32.255-29.426 35.394zm54.792 54.776c3.21-1.302 6.278-2.926 9.165-4.839l-8.133 5.871zm83.264-58.336-70.496 50.92c22.459-17.898 26.157-50.615 8.258-73.074-17.898-22.459-50.615-26.157-73.074-8.258-6.951 5.539-12.366 12.768-15.729 20.996l-12.456-12.464 96.688-96.688 92.688 92.688z"/></g></svg>