<svg enable-background="new 0 0 50 50" viewBox="0 0 50 50" xmlns="http://www.w3.org/2000/svg"><g fill="#094e69"><path d="m20.9 17.8-3.7 10.7-3.8-10.7h-2.6l5 14.2.1.2h2.5l5-13.9.2-.5z"/><path d="m24.6 17.8h2.6v14.4h-2.6z"/><path d="m38.7 20.2c-.3-.5-.7-1-1.2-1.4s-1.1-.6-1.8-.8-1.4-.3-2.2-.3h-3.7v14.4h2.6v-5.4h.6c.8 0 1.6-.1 2.4-.3.7-.2 1.4-.5 1.9-.9.6-.4 1-.9 1.3-1.5s.5-1.2.5-2c.1-.6-.1-1.2-.4-1.8zm-2.4 2.9c-.2.3-.4.5-.7.7s-.7.4-1.1.5-.9.2-1.4.2h-.6v-4.5h1c.4 0 .9 0 1.2.1.4.1.7.2 1 .4s.5.4.6.6c.1.3.2.6.2.9 0 .5 0 .9-.2 1.1z"/><path d="m49.3 23.2-5.9-5.9v-8.2c0-1.4-1.1-2.5-2.5-2.5h-8.3l-5.9-5.9c-.4-.4-1-.7-1.7-.7s-1.3.3-1.8.7l-5.9 5.9h-8.2c-1.4 0-2.5 1.1-2.5 2.5v8.3l-5.9 5.9c-1 1-1 2.6 0 3.5l5.9 5.9v8.3c0 1.4 1.1 2.5 2.5 2.5h8.3l5.9 5.9c.5.5 1.1.7 1.8.7s1.3-.3 1.8-.7l5.9-5.9h8.3c1.4 0 2.5-1.1 2.5-2.5v-8.3l5.9-5.9c.7-1 .7-2.6-.2-3.6zm-8.4 8.4v9.3h-9.3l-6.6 6.6-6.6-6.6h-9.3v-9.3l-6.6-6.6 6.6-6.6v-9.3h9.3l6.6-6.6 6.6 6.6h9.3v9.3l6.6 6.6z"/><circle cx="25" cy="7.5" r="1.2"/><circle cx="25" cy="42.5" r="1.2"/><circle cx="12.6" cy="12.6" r="1.2"/><circle cx="37.4" cy="37.4" r="1.2"/><circle cx="37.4" cy="12.6" r="1.2"/><circle cx="12.6" cy="37.4" r="1.2"/><circle cx="42.5" cy="25" r="1.2"/><circle cx="7.5" cy="25" r="1.2"/></g></svg>