<svg enable-background="new 0 0 50 50" viewBox="0 0 50 50" xmlns="http://www.w3.org/2000/svg"><g fill="#00aeef"><path d="m18.4 22.5c-2.1 0-3.9 1.7-3.9 3.9 0 2.1 1.7 3.9 3.9 3.9 2.1 0 3.9-1.7 3.9-3.9s-1.8-3.9-3.9-3.9zm0 5.2c-.8 0-1.4-.6-1.4-1.4s.6-1.4 1.4-1.4 1.4.6 1.4 1.4-.6 1.4-1.4 1.4z"/><path d="m48.8 39.6h-25.2v-7.5c1.6-1.4 2.6-3.5 2.6-5.9 0-2.9-1.6-5.4-3.9-6.8l-2.1-3.9h7.5c.7 0 1.2-.5 1.2-1.2v-1.3h10.8v2.8h-4.1c-.4 0-.8.2-1 .6s-.2.8-.1 1.2l2.6 5.3c.2.4.6.7 1.1.7.2 0 .4 0 .5-.1.6-.3.8-1 .5-1.6l-1.8-3.5h6.6l-1.8 3.5c-.3.6-.1 1.3.5 1.6s1.3.1 1.6-.5l2.6-5.3c.2-.4.2-.8-.1-1.2-.2-.4-.6-.6-1-.6h-4.1v-3c1.5-.5 2.6-2 2.6-3.7 0-2.1-1.7-3.9-3.9-3.9h-12v-1.4c0-.7-.5-1.2-1.2-1.2h-18.1c-1-.1-2.1.2-3.1.8-1.5.8-2.6 2.2-3.1 3.8-.5 1.7-.3 3.5.6 5l7.2 13c0 .3-.1.7-.1 1s0 .6.1.9l-7.5 12.4h-2c-.7 0-1.2.5-1.2 1.2v5.3c0 .7.5 1.2 1.2 1.2h47.6c.7 0 1.2-.5 1.2-1.2v-5.3c0-.6-.5-1.2-1.2-1.2zm-30.4-7.9c-3 0-5.4-2.4-5.4-5.4s2.4-5.4 5.4-5.4 5.4 2.4 5.4 5.4-2.4 5.4-5.4 5.4zm22.5-21.1c-.8 0-1.4-.6-1.4-1.4s.6-1.4 1.4-1.4 1.4.6 1.4 1.4c0 .7-.7 1.4-1.4 1.4zm-3.6-2.9c-.2.5-.3.9-.3 1.4s.1 1 .3 1.4h-8.4v-2.8zm-10.9 5.5h-7.6l-4-7.2c-.2-.3-.4-.6-.6-.9h12.2zm-20.8-2.1c-1.1-2-.4-4.4 1.6-5.5.6-.3 1.3-.5 2-.5 1.4 0 2.8.8 3.6 2.1l6.2 11.3c-.2 0-.4 0-.6 0-2.8 0-5.3 1.5-6.7 3.7zm6 19.2c1.4 2.3 3.9 3.9 6.8 3.9 1 0 1.9-.2 2.7-.5v6h-15.1zm36 14.6h-45.2v-2.8h45.1z"/></g></svg>