<svg xmlns="http://www.w3.org/2000/svg" viewBox="0 0 996.18 336.88"><defs><style>.cls-1,.cls-2{fill:#3C3C3C;}.cls-2{fill-rule:evenodd;}</style></defs><title>Ativo 3</title><g id="Camada_2" data-name="Camada 2"><g id="Camada_1-2" data-name="Camada 1"><path id="midia" class="cls-1" d="M561.94,222.78V146.86q0-23.88-21.39-23.88a22.47,22.47,0,0,0-12.22,3.74,21.73,21.73,0,0,0-8.26,8.6v87.46H491.79V142.45q0-8.94-5.55-14.2T470.63,123q-5.33,0-11.6,4a27.15,27.15,0,0,0-9.11,8.71v87.12H421.64V101.6H441.1l5.77,10.64q11.76-12.9,30.43-12.9,24.1,0,36.32,13.12,5.32-6,14.82-9.56a54,54,0,0,1,19-3.56q20.25,0,31.51,11.59t11.26,31.85v80Zm67,0v-98H613.41V101.6h44.13V222.78ZM668,52.16,642.38,85.31h-21.5L640,52.16Zm99.9,170.62v-7.36q-3.5,3.86-11.88,6.73A52.58,52.58,0,0,1,738.66,225q-25.33,0-39.88-16.07t-14.54-44.8q0-28.74,16.69-46.79t41.8-18A55.24,55.24,0,0,1,767.85,105V56.46l28.29-6.79V222.78Zm0-92.21q-9-7.25-18.89-7.25-17,0-26.14,10.36t-9.16,29.7q0,37.78,36.43,37.79a27.52,27.52,0,0,0,10-2.43q5.94-2.44,7.75-4.93ZM832,222.78v-98H816.5V101.6h44.13V222.78ZM846.6,54.65A16.42,16.42,0,0,1,863,71.05a16.41,16.41,0,1,1-28-11.59A15.8,15.8,0,0,1,846.6,54.65ZM961,210.67Q957.14,217,947.58,221a51,51,0,0,1-20,4q-19.58,0-30.77-9.79t-11.2-27.77q0-21,15.78-32.93t44.86-11.88a49.68,49.68,0,0,1,11.77,1.7q0-21.39-27-21.39-16,0-26.7,5.32l-6.11-22q14.58-7,34.73-7,27.72,0,40.62,12.61t12.9,47.81v25.91q0,24.21,9.73,30.43-3.51,6.12-7.81,7.52a31.3,31.3,0,0,1-9.85,1.42,15.68,15.68,0,0,1-11-4.53A23,23,0,0,1,961,210.67Zm-2.71-44.92a60.28,60.28,0,0,0-10.87-1.47q-33.48,0-33.49,21.95,0,16.29,18.9,16.29,25.45,0,25.46-25.45Z"/><path class="cls-2" d="M0,56A56,56,0,0,1,56,0H325.5a56,56,0,0,1,56,56V223.88a56,56,0,0,1-56,56h-182c-22.9,22.23-32.29,32.64-56.25,57q-5.48-28.51-11-57H56a56,56,0,0,1-56-56V56Zm114.46,71.88c5-4.75,12.18-7.1,21.61-7.1q39.93,0,39.93,36.81,0,21.34-9.68,31.07c-6.42,6.47-17.38,9.67-32.78,9.67-8,0-14.36-2.42-19.08-7.32V127.85Zm26,94.43q31.69,0,50.24-17.69t18.55-48q0-26.25-18.42-43T142.35,96.82a58.06,58.06,0,0,0-27.89,6.86V47.25L82.51,54V222.28h18l7.15-8.95C116.82,219.27,127.73,222.28,140.43,222.28Zm168.38.26V203H262.34l25.35-38.61q13.77-21,13.77-35.14,0-15.38-10.73-24T261,96.58a38.53,38.53,0,0,0-20.82,5.87,36.36,36.36,0,0,0-13.81,14.74l14.78,11.66q7.86-13.6,20.7-13.6,16.82,0,16.81,14,0,11.83-11.74,29.15l-39.2,57.7v6.42Z"/></g></g></svg>
