<svg enable-background="new 0 0 512.002 512.002" height="512" viewBox="0 0 512.002 512.002" width="512" xmlns="http://www.w3.org/2000/svg"><g fill="#094e69"><path d="m511.257 197.652-24.394-134.93c-3.442-19.04-18.546-34.144-37.584-37.585l-134.932-24.394c-15.03-2.713-30.458 2.11-41.259 12.912l-259.457 259.454c-18.175 18.178-18.175 47.755.001 65.934l159.323 159.324c9.09 9.089 21.028 13.633 32.968 13.633 11.939 0 23.878-4.544 32.967-13.633l259.455-259.453c10.805-10.803 15.631-26.228 12.912-41.262zm-34.145 20.029-259.454 259.454c-6.472 6.471-16.999 6.471-23.469 0l-159.323-159.325c-6.471-6.471-6.471-16.998-.001-23.469l259.454-259.454c3.14-3.139 7.376-4.86 11.738-4.86.981 0 1.968.087 2.95.264l134.931 24.395c6.776 1.224 12.152 6.601 13.377 13.378l24.394 134.929c.968 5.351-.751 10.842-4.597 14.688z"/><path d="m417.967 93.618c-16.025-16.027-42.101-16.026-58.126 0-16.027 16.026-16.027 42.101 0 58.127 8.012 8.013 18.537 12.02 29.063 12.02s21.05-4.007 29.062-12.019c7.764-7.764 12.039-18.085 12.039-29.064.001-10.979-4.274-21.301-12.038-29.064zm-21.232 36.893v.001c-4.317 4.318-11.342 4.32-15.661 0-4.318-4.318-4.318-11.344 0-15.662 2.159-2.159 4.995-3.238 7.83-3.238 2.837 0 5.672 1.081 7.831 3.239 2.092 2.092 3.244 4.872 3.244 7.83s-1.152 5.738-3.244 7.83z"/><path d="m190.953 381.55-23.198-23.198 13.577-13.577c1.378-1.378 1.887-2.967 1.527-4.765-.359-1.799-1.227-3.386-2.607-4.766-1.497-1.497-3.163-2.412-4.99-2.742-1.829-.33-3.403.165-4.72 1.482l-13.577 13.577-15.197-15.197 23.289-23.289c1.318-1.318 1.754-2.951 1.304-4.899-.449-1.947-1.543-3.791-3.282-5.53-1.618-1.619-3.386-2.667-5.306-3.148-1.917-.477-3.565-.029-4.943 1.349l-31.201 31.201c-1.679 1.68-2.743 3.493-3.192 5.441-.45 1.95.015 3.611 1.393 4.99l57.097 57.097c1.381 1.381 3.133 1.755 5.261 1.127 2.127-.629 4.149-1.903 6.068-3.823 1.918-1.919 3.192-3.94 3.821-6.068.63-2.128.257-3.881-1.124-5.262z"/><path d="m266.395 301.254c-.659-.659-1.347-1.049-2.068-1.169l-30.841-8.903c4.435-10.068 1.979-19.781-7.373-29.132-12.827-12.827-26.616-11.868-41.362 2.878l-18.614 18.614c-1.259 1.258-1.873 2.71-1.843 4.36s.615 3.043 1.753 4.181l57.187 57.187c1.381 1.381 3.132 1.756 5.26 1.125 2.128-.629 4.15-1.903 6.068-3.821s3.192-3.939 3.823-6.068c.629-2.128.255-3.88-1.126-5.261l-21.669-21.669 5.935-5.935 36.237 11.599c2.638.84 5.005.211 7.103-1.888 2.098-2.098 3.313-4.871 3.641-8.32.333-3.447-.373-6.039-2.111-7.778zm-52.69-7.374-8.903 8.903-16.724-16.724 8.903-8.903c2.637-2.637 5.29-4 7.958-4.09 2.667-.089 5.499 1.362 8.496 4.359 2.999 2.999 4.451 5.831 4.361 8.498-.091 2.668-1.454 5.319-4.091 7.957z"/><path d="m319.533 258.004c-.479-1.918-1.528-3.686-3.147-5.305-1.738-1.738-3.581-2.831-5.53-3.282-1.949-.447-3.583-.013-4.9 1.304l-24.098 24.098-15.285-15.285 13.488-13.488c1.378-1.378 1.888-2.968 1.528-4.766-.359-1.799-1.227-3.386-2.607-4.766-1.497-1.497-3.163-2.412-4.99-2.742-1.83-.329-3.404.166-4.721 1.483l-13.488 13.488-15.197-15.197 24.098-24.098c1.318-1.318 1.754-2.951 1.305-4.9-.449-1.947-1.543-3.791-3.282-5.53-1.618-1.62-3.386-2.667-5.306-3.148-1.917-.477-3.566-.028-4.944 1.35l-32.01 32.01c-1.677 1.679-2.742 3.492-3.191 5.44-.45 1.95.015 3.611 1.393 4.99l57.097 57.097c1.381 1.381 3.042 1.846 4.989 1.394 1.949-.448 3.76-1.513 5.439-3.192l32.01-32.01c1.378-1.378 1.829-3.025 1.349-4.945z"/><path d="m367.997 209.54c-.479-1.918-1.528-3.686-3.147-5.305-1.738-1.738-3.581-2.831-5.53-3.282-1.949-.447-3.582-.014-4.9 1.304l-24.097 24.097-15.285-15.285 13.487-13.487c1.378-1.378 1.888-2.968 1.528-4.766-.359-1.799-1.227-3.386-2.607-4.766-1.497-1.497-3.163-2.412-4.99-2.741-1.83-.329-3.403.165-4.721 1.483l-13.487 13.487-15.197-15.197 24.097-24.097c1.319-1.319 1.754-2.951 1.305-4.9-.449-1.947-1.543-3.791-3.282-5.53-1.618-1.62-3.386-2.667-5.306-3.148-1.917-.477-3.566-.028-4.944 1.35l-32.01 32.01c-1.677 1.678-2.742 3.492-3.191 5.44-.45 1.95.015 3.611 1.393 4.99l57.097 57.097c1.381 1.381 3.042 1.846 4.989 1.394 1.949-.448 3.76-1.513 5.439-3.192l32.01-32.01c1.378-1.378 1.829-3.026 1.349-4.946z"/></g></svg>