<svg enable-background="new 0 0 496.006 496.006" height="512" viewBox="0 0 496.006 496.006" width="512" xmlns="http://www.w3.org/2000/svg"><g fill="#094e69"><path d="m248.003 312.006c-30.88 0-56 25.128-56 56s25.12 56 56 56 56-25.128 56-56-25.12-56-56-56zm0 96c-22.056 0-40-17.944-40-40s17.944-40 40-40 40 17.944 40 40-17.944 40-40 40z"/><path d="m32.003 256.006h48v16h-48z"/><path d="m32.003 288.006h48v16h-48z"/><path d="m416.003 256.006h48v16h-48z"/><path d="m416.003 288.006h48v16h-48z"/><path d="m448.003 144.006h-104.192c4.24-10.096 6.808-20.888 7.68-32h104.512c22.056 0 40-17.944 40-40s-17.944-40-40-40h-133.12c-.936-.968-1.784-1.992-2.76-2.936-20.552-19.784-47.616-30.08-76.176-28.992-27.224 1.048-52.112 13.216-70.248 31.928h-103.144l-57.864 21.696c-7.592 2.84-12.688 10.2-12.688 18.304s5.096 15.464 12.68 18.304l57.872 21.696h73.92c.864 11.144 3.512 21.904 7.744 32h-104.216v80h-48v112h112v-112h-48v-64h96v-1.072c8.064 12.888 18.8 24.16 32 32.616v8.456h-16v16h16v16h-16v16h16.64c1.208 8.384 4.232 16.184 8.736 22.952l-22.232-15.104-43.304 43.296 17.544 25.816c-1 2.184-1.92 4.392-2.752 6.592l-30.632 5.832v61.232l30.632 5.832c.832 2.2 1.752 4.408 2.752 6.592l-17.544 25.816 43.304 43.296 25.816-17.536c2.192 1.008 4.392 1.928 6.584 2.76l5.84 30.624h61.232l5.84-30.624c2.192-.832 4.392-1.752 6.584-2.76l25.816 17.536 43.304-43.296-17.544-25.816c1-2.184 1.92-4.392 2.752-6.592l30.632-5.832v-61.232l-30.632-5.832c-.832-2.2-1.752-4.408-2.752-6.592l17.544-25.816-43.304-43.296-22.232 15.104c4.504-6.76 7.52-14.56 8.728-22.944h16.648v-16h-16v-16h16v-16h-16v-8.464c13.168-8.44 23.92-19.744 32-32.68v1.136h96v64h-48v112h112v-112h-48zm-384-51.544-45.704-17.136c-1.376-.52-2.296-1.848-2.296-3.32s.92-2.8 2.304-3.32l45.696-17.136zm32 147.544v80h-80v-80zm288-144h-32.4c-.408-5.44-1.24-10.776-2.472-16h34.872zm48-48h24c13.232 0 24 10.768 24 24s-10.768 24-24 24h-24zm-32 0h16v48h-16zm-16 0v16h-39.96c-2.32-5.568-5.2-10.896-8.48-16zm-239.568 48h-64.432v-16h66.968c-1.28 5.208-2.104 10.552-2.536 16zm7.568-31.208v-.792h-72v-16h80.944c-3.472 5.304-6.472 10.912-8.944 16.792zm162.904 211.728 24.584 24.576-15.376 22.616 2.168 4.216c2.216 4.336 4.056 8.728 5.456 13.064l1.456 4.512 26.808 5.112v34.768l-26.816 5.112-1.456 4.512c-1.4 4.336-3.232 8.728-5.456 13.064l-2.168 4.216 15.376 22.616-24.584 24.576-22.616-15.368-4.224 2.168c-4.368 2.232-8.76 4.072-13.056 5.456l-4.512 1.464-5.104 26.8h-34.768l-5.112-26.808-4.512-1.464c-4.296-1.384-8.688-3.216-13.056-5.456l-4.224-2.168-22.616 15.368-24.584-24.576 15.376-22.616-2.168-4.216c-2.216-4.336-4.056-8.728-5.456-13.064l-1.456-4.512-26.808-5.104v-34.768l26.816-5.112 1.456-4.512c1.4-4.336 3.232-8.728 5.456-13.064l2.168-4.216-15.376-22.616 24.584-24.576 22.624 15.368 4.224-2.168c2.728-1.408 5.496-2.608 8.256-3.688 9.024 6.272 19.976 9.968 31.792 9.968s22.768-3.696 31.808-9.968c2.744 1.08 5.504 2.28 8.264 3.688l4.216 2.168zm-26.904-60.52v16h-80v-16zm-64-96h-16c-8.824 0-16-7.176-16-16s7.176-16 16-16 16 7.176 16 16zm16 80v-64h16v64zm47.192 48c-3.72 18.232-19.88 32-39.192 32s-35.472-13.768-39.192-32zm4.8-67.872-3.992 2.312v17.56h-16v-64h16c17.648 0 32-14.352 32-32s-14.352-32-32-32-32 14.352-32 32v16h-16v-16c0-17.648-14.352-32-32-32s-32 14.352-32 32 14.352 32 32 32h16v64h-16v-17.56l-3.992-2.312c-27.864-16.144-44.72-46.104-43.984-78.192 1.048-45.608 38.96-84.128 84.52-85.864 1.168-.056 2.32-.072 3.48-.072 22.896 0 44.448 8.664 61 24.592 17.392 16.744 26.976 39.264 26.976 63.408 0 31.232-16.864 60.4-44.008 76.128zm-19.992-60.128v-16c0-8.824 7.176-16 16-16s16 7.176 16 16-7.176 16-16 16zm208 120v80h-80v-80z"/></g></svg>