<svg enable-background="new 0 0 512.004 512.004" height="512" viewBox="0 0 512.004 512.004" width="512" xmlns="http://www.w3.org/2000/svg"><g fill="#fff"><path d="m509.502 25.744-23.288-23.287c-3.2-3.2-8.866-3.2-12.066 0l-69.871 69.871c-3.336 3.336-3.336 8.73 0 12.066l23.287 23.287c1.596 1.604 3.772 2.5 6.033 2.5s4.429-.896 6.033-2.5l69.871-69.871c3.337-3.336 3.337-8.729.001-12.066zm-75.904 63.838-11.221-11.221 57.805-57.805 11.221 11.221z"/><path d="m445.033 101.025-34.099-34.099c-9.984-9.984-26.214-9.984-36.198 0l-11.23 11.221c-1.604 1.596-2.5 3.763-2.5 6.033 0 2.261.896 4.429 2.5 6.033l58.232 58.231c1.596 1.604 3.772 2.5 6.033 2.5 2.27 0 4.437-.905 6.042-2.5l11.221-11.221c9.983-9.984 9.983-26.214-.001-36.198zm-12.075 24.124-5.188 5.188-46.157-46.165 5.188-5.188c3.328-3.311 8.738-3.328 12.066 0l34.091 34.099c3.328 3.328 3.328 8.738 0 12.066z"/><path d="m438.155 140.722-66.935-66.935c-12.894-12.894-30.029-19.994-48.265-19.994-18.227 0-35.362 7.1-48.256 19.994l-50.935 50.935c-1.604 1.596-2.5 3.763-2.5 6.033s.896 4.429 2.5 6.033l151.39 151.398c1.664 1.664 3.849 2.5 6.033 2.5 2.185 0 4.369-.836 6.033-2.5l50.935-50.935c26.607-26.615 26.607-69.922 0-96.529zm-12.066 84.463-44.902 44.902-139.325-139.332 44.902-44.894c9.668-9.668 22.519-14.993 36.19-14.993 13.679 0 26.53 5.325 36.198 14.993l66.935 66.935c19.952 19.952 19.952 52.43.002 72.389z"/><path d="m369.76 118.911-23.296-23.305c-12.962-12.954-34.031-12.954-46.984 0l-23.296 23.305c-3.337 3.337-3.337 8.73 0 12.066s8.738 3.336 12.066 0l23.296-23.305c6.306-6.298 16.555-6.298 22.852 0l23.296 23.305c1.664 1.664 3.849 2.5 6.033 2.5 2.176 0 4.36-.836 6.033-2.5 3.336-3.336 3.336-8.73 0-12.066z"/><path d="m107.727 427.51-23.287-23.287c-1.596-1.604-3.772-2.5-6.033-2.5s-4.429.896-6.033 2.5l-69.872 69.871c-3.336 3.337-3.336 8.73 0 12.066l23.287 23.287c1.596 1.604 3.772 2.5 6.033 2.5 2.27 0 4.437-.896 6.033-2.5l69.871-69.871c3.337-3.336 3.337-8.729.001-12.066zm-75.904 63.838-11.221-11.221 57.805-57.805 11.221 11.221z"/><path d="m148.482 421.699-58.231-58.231c-1.596-1.604-3.772-2.5-6.033-2.5s-4.429.896-6.033 2.5l-11.221 11.221c-9.984 9.984-9.984 26.214 0 36.198l34.099 34.099c4.992 4.992 11.546 7.484 18.099 7.484s13.107-2.492 18.091-7.484l11.23-11.221c1.604-1.596 2.5-3.763 2.5-6.033-.001-2.261-.897-4.428-2.501-6.033zm-23.27 11.213c-3.328 3.311-8.738 3.328-12.066 0l-34.099-34.099c-3.328-3.328-3.328-8.738 0-12.066l5.188-5.188 46.165 46.165z"/><path d="m299.881 363.451-151.39-151.39c-3.2-3.2-8.866-3.2-12.066 0l-62.583 62.583c-26.607 26.615-26.607 69.922 0 96.529l66.935 66.935c12.894 12.894 30.029 19.994 48.265 19.994s35.371-7.1 48.265-20.002l62.575-62.583c3.335-3.337 3.335-8.73-.001-12.066zm-74.65 62.592c-9.668 9.668-22.519 14.993-36.19 14.993-13.679 0-26.53-5.325-36.198-14.993l-66.935-66.935c-19.951-19.951-19.951-52.429 0-72.388l56.55-56.55 139.315 139.324z"/><path d="m247.494 182.962c-9.455-9.446-25.924-9.455-35.362 0l-52.412 52.403c-1.604 1.596-2.5 3.763-2.5 6.033s.896 4.429 2.5 6.033l23.287 23.287c1.664 1.664 3.849 2.5 6.033 2.5s4.369-.836 6.05-2.5l52.403-52.403c4.719-4.719 7.322-11 7.322-17.681s-2.602-12.953-7.321-17.672zm-12.091 23.279-46.37 46.37-11.221-11.221 46.37-46.37c2.995-3.004 8.218-3.004 11.221.009 1.493 1.493 2.321 3.482 2.321 5.598 0 2.124-.819 4.112-2.321 5.614z"/><path d="m329.005 264.473c-9.754-9.754-25.609-9.762-35.362 0l-52.403 52.403c-1.604 1.596-2.5 3.763-2.5 6.033s.896 4.429 2.5 6.033l23.287 23.287c1.664 1.664 3.849 2.5 6.033 2.5 2.185 0 4.369-.828 6.033-2.492l52.412-52.403c9.745-9.753 9.745-25.608 0-35.361zm-12.075 23.287-46.37 46.37-11.221-11.221 46.37-46.37c3.004-3.004 8.226-3.004 11.221 0 3.089 3.089 3.089 8.132 0 11.221z"/><path d="m253.297 363.459-104.806-104.806c-3.336-3.337-8.73-3.337-12.066 0l-46.583 46.583c-3.337 3.337-3.337 8.73 0 12.066l104.815 104.806c1.664 1.664 3.849 2.5 6.033 2.5 2.176 0 4.361-.836 6.025-2.5l46.583-46.583c3.336-3.336 3.336-8.729-.001-12.066zm-52.616 40.551-92.74-92.74 34.517-34.517 92.74 92.74z"/><path d="m195.074 351.82-34.935-34.944c-3.337-3.336-8.73-3.337-12.066 0s-3.336 8.73 0 12.066l34.935 34.944c1.664 1.664 3.849 2.5 6.033 2.5s4.369-.836 6.033-2.5c3.337-3.337 3.337-8.73 0-12.066z"/></g></svg>