<svg enable-background="new 0 0 50 50" viewBox="0 0 50 50" xmlns="http://www.w3.org/2000/svg"><path d="m47.5 12.5c.2-.8.1-1.6-.4-2.3s-1.2-1.1-2-1.1h-1c.3-.8.2-1.6-.3-2.3s-1.2-1.1-2-1.1h-9.2c-2 0-4 .5-5.7 1.6-1.1.6-2.3.9-3.5.9h-2.5v-1.5c0-.8-.4-1.6-1.1-2-.7-.5-1.5-.6-2.3-.3v-1.9c0-1.4-1.1-2.5-2.5-2.5s-2.5 1.1-2.5 2.5v.1c-.8-.3-1.6-.2-2.3.3-.6.5-1 1.3-1 2.1v1c-.8-.3-1.6-.2-2.3.3s-1.1 1.2-1.1 2v9.2c0 2 .5 4 1.6 5.7.6 1.1.9 2.3.9 3.5v2.5h-1.6c-.8 0-1.6.4-2 1.1-.5.7-.6 1.5-.3 2.3h-1.9c-1.4-.1-2.5 1-2.5 2.4s1.1 2.5 2.5 2.5h.1c-.3.8-.2 1.6.3 2.3s1.2 1.1 2 1.1h1c-.3.8-.2 1.6.3 2.3s1.2 1.1 2 1.1h9.2c2 0 4-.5 5.7-1.6 1.1-.6 2.3-.9 3.5-.9h2.5v1.7c0 .8.4 1.6 1.1 2s1.5.6 2.3.3v1.8c0 1.4 1.1 2.5 2.5 2.5s2.5-1.1 2.5-2.5v-.1c.8.3 1.6.2 2.3-.3s1.1-1.2 1.1-2v-1c.8.3 1.6.2 2.3-.3s1.1-1.2 1.1-2v-9.2c0-2-.5-4-1.6-5.7-.6-1.1-.9-2.3-.9-3.5v-2.5h1.7c.8 0 1.6-.4 2-1.1s.6-1.5.3-2.3h1.8c1.4 0 2.5-1.1 2.5-2.5-.1-1.5-1.2-2.6-2.6-2.6zm-40 5v-9.2c0-.5.4-.8.8-.8.5 0 .8.4.8.8v5.8c0 .5.4.8.8.8s.8-.4.8-.8v-9.1c0-.5.4-.8.8-.8s.8.4.8.8v9.2c0 .5.4.8.8.8s.8-.4.8-.8v-11.7c0-.5.4-.8.8-.8.5 0 .8.4.8.8v11.7c0 .5.4.8.8.8.5 0 .8-.4.8-.8v-7.5c0-.5.4-.8.8-.8.5 0 .8.4.8.8v12.5c0 .5.4.8.8.8h1.6c-.2 1.5-.9 2.8-2 3.7-.8.6-1.2 1.6-1.2 2.6v2.9h-7.9v-2.5c0-1.5-.4-3-1.2-4.3-.8-1.5-1.3-3.2-1.3-4.9zm15.8 2.5h.4c.5 0 1 .2 1.3.6 1.3 1.5 3 2.4 5 2.6v.4c0 .5-.2 1-.6 1.3-1.5 1.3-2.4 3-2.6 5h-.4c-.5 0-1-.2-1.3-.6-1.3-1.5-3-2.4-5-2.6v-.4c0-.5.2-1 .6-1.3 1.4-1.3 2.4-3.1 2.6-5zm5.9 20h-2.5c-1.5 0-3 .4-4.3 1.2-1.5.9-3.1 1.3-4.8 1.3h-9.3c-.5 0-.8-.4-.8-.8 0-.5.4-.8.8-.8h5.8c.5 0 .8-.4.8-.8 0-.5-.4-.8-.8-.8h-9.1c-.5 0-.8-.4-.8-.8 0-.5.4-.8.8-.8h9.2c.5 0 .8-.4.8-.8 0-.5-.4-.8-.8-.8h-11.7c-.5 0-.8-.4-.8-.8 0-.5.4-.8.8-.8h11.7c.5 0 .8-.4.8-.8 0-.5-.4-.8-.8-.8h-7.5c-.5 0-.8-.4-.8-.8s.4-.8.8-.8h12.5c.5 0 .8-.4.8-.8v-1.6c1.5.2 2.8.9 3.7 2 .6.8 1.6 1.2 2.6 1.2h2.9c0-.4 0 7.9 0 7.9zm13.3-7.5v9.2c0 .5-.4.8-.8.8-.5 0-.8-.4-.8-.8v-5.8c0-.5-.4-.8-.8-.8-.5 0-.8.4-.8.8v9.1c0 .5-.4.8-.8.8-.5 0-.8-.4-.8-.8v-9.2c0-.5-.4-.8-.8-.8-.5 0-.8.4-.8.8v11.7c0 .5-.4.8-.8.8-.5 0-.8-.4-.8-.8v-11.7c0-.5-.4-.8-.8-.8-.5 0-.8.4-.8.8v7.5c0 .5-.4.8-.8.8s-.8-.4-.8-.8v-12.5c0-.5-.4-.8-.8-.8h-1.6c.2-1.5.9-2.8 2-3.7.8-.6 1.2-1.6 1.2-2.6v-2.9h7.9v2.5c0 1.5.4 3 1.2 4.3.8 1.5 1.3 3.2 1.3 4.9zm5-16.7h-11.7c-.5 0-.8.4-.8.8 0 .5.4.8.8.8h7.5c.5 0 .8.4.8.8 0 .5-.4.8-.8.8h-12.5c-.5 0-.8.4-.8.8v1.6c-1.5-.2-2.8-.9-3.7-2-.6-.8-1.6-1.2-2.6-1.2h-2.9v-8.2h2.5c1.5 0 3-.4 4.3-1.2 1.5-.9 3.1-1.3 4.8-1.3h9.2c.5 0 .8.4.8.8 0 .5-.4.8-.8.8h-5.8c-.4.1-.8.4-.8.9s.4.8.8.8h9.2c.5 0 .8.4.8.8s-.4.8-.8.8h-9.2c-.5 0-.8.4-.8.8s.4.8.8.8h11.7c.5 0 .8.4.8.8 0 .7-.3 1-.8 1z" fill="#094e69"/></svg>