<svg enable-background="new 0 0 50 50" viewBox="0 0 50 50" xmlns="http://www.w3.org/2000/svg"><g fill="#094e69"><path d="m19 31.2 1.2-.7c.5-.3.6-.9.4-1.3l-2.2-3.8c-.2-.3-.5-.5-.9-.5-.2 0-.3 0-.5.1l-1.2.7c-.2.1-.3.1-.5.1-.5 0-1-.4-1-1v-1.3c0-.5-.4-1-1-1h-4.4c-.5 0-1 .4-1 1v1.3c0 .6-.5 1-1 1-.2 0-.3 0-.5-.1l-1.1-.7c-.2-.1-.3-.1-.5-.1-.3 0-.7.2-.9.5l-2.2 3.8c-.3.5-.1 1.1.4 1.3l1.2.7c.7.4.7 1.3 0 1.7l-1.2.7c-.5.3-.6.9-.4 1.3l2.2 3.8c.2.3.5.5.9.5.2 0 .3 0 .5-.1l1.2-.7c.2-.1.3-.1.5-.1.5 0 1 .4 1 1v1.3c0 .5.4 1 1 1h4.4c.5 0 1-.4 1-1v-1.3c0-.6.5-1 1-1 .2 0 .3 0 .5.1l1.2.7c.2.1.3.1.5.1.3 0 .7-.2.9-.5l2.2-3.8c.3-.5.1-1.1-.4-1.3l-1.3-.7c-.7-.4-.7-1.4 0-1.7zm-7.9 3.7c-1.6 0-2.9-1.3-2.9-2.9s1.3-2.9 2.9-2.9 2.9 1.3 2.9 2.9-1.3 2.9-2.9 2.9z"/><path d="m18.2 4c-.5-.5-1.4-.5-1.9 0s-.5 1.4 0 1.9l2.4 2.4c-8.9.5-16.1 7.5-16.9 16.3l.2-.4c.6-1 1.6-1.6 2.8-1.6h.1c1.5-6.4 7.1-11.2 13.8-11.6l-2.4 2.4c-.5.5-.5 1.4 0 1.9.3.3.6.4 1 .4s.7-.1 1-.4l4.7-4.7c.3-.3.4-.6.4-1s-.1-.7-.4-1c-.1.1-4.8-4.6-4.8-4.6z"/><path d="m35.3 10.9c3 0 5.5-2.4 5.5-5.5 0-3-2.4-5.5-5.5-5.5-3 0-5.5 2.4-5.5 5.5s2.5 5.5 5.5 5.5z"/><path d="m46 25.6v-7.5c0-2.1-1.3-3.9-3.3-4.6l-2.9-.5c-.2-.1-.5.1-.6.3l-3.3 9c-.2.5-.9.5-1.1 0l-3.3-9c-.1-.2-.3-.3-.5-.3 0 0-3 .5-3 .5-2 .7-3.3 2.5-3.3 4.6v7.5c0 1.1.9 2 2 2h17.2c1.2.1 2.1-.8 2.1-2z"/><path d="m48.4 27.4c-.1 1.6-1.4 2.5-3 2.6-1.2 6.8-6.9 12.1-14 12.5l2.4-2.4c.5-.5.5-1.4 0-1.9s-1.4-.5-1.9 0l-4.7 4.8c-.5.5-.5 1.4 0 1.9l4.7 4.7c.3.3.6.4 1 .4s.7-.1 1-.4c.5-.5.5-1.4 0-1.9l-2.4-2.4c9.3-.5 16.9-8.3 16.9-17.9z"/><path d="m36.5 13c-.1-.1-.3-.2-.5-.2h-1.4c-.2 0-.4.1-.5.2-.2.2-.2.5-.1.8l.7 1.1-.3 2.9.7 1.8c.1.2.3.2.4 0l.7-1.8-.3-2.9.7-1.1c.1-.3.1-.6-.1-.8z"/></g></svg>