<svg enable-background="new 0 0 512 512" height="512" viewBox="0 0 512 512" width="512" xmlns="http://www.w3.org/2000/svg"><g fill="#094e69"><path d="m451.449 168.599c-3.482-6.538-10.245-10.599-17.652-10.599h-56.81c-4.743-26.675-28.087-47-56.104-47s-51.361 20.325-56.104 47h-57.555c4.514-6.908 7.15-15.15 7.15-24 0-24.262-19.738-44-44-44s-44 19.738-44 44c0 8.85 2.636 17.092 7.15 24h-46.926c-7.407 0-14.17 4.061-17.652 10.599-3.481 6.537-3.077 14.416 1.056 20.562l134.196 199.556v113.283c0 3.372 1.699 6.517 4.52 8.364 1.653 1.083 3.562 1.636 5.481 1.636 1.354 0 2.713-.275 3.992-.832l92-40.063c3.648-1.589 6.007-5.189 6.007-9.168v-73.221l134.195-199.556c4.133-6.145 4.538-14.024 1.056-20.561zm-130.566-37.599c16.937 0 31.241 11.443 35.616 27h-71.231c4.374-15.557 18.679-27 35.615-27zm-150.508-21c13.233 0 24 10.767 24 24s-10.767 24-24 24-24-10.767-24-24 10.767-24 24-24zm127.524 270.086c-1.109 1.649-1.702 3.592-1.702 5.58v69.719l-72 31.353v-91.072h36.127c5.523 0 10-4.477 10-10s-4.477-10-10-10h-40.801l-100.643-149.666h202.003c5.523 0 10-4.477 10-10s-4.477-10-10-10h-215.452l-18.829-28h347.194z"/><path d="m294.324 0c-24.262 0-44 19.738-44 44s19.739 44 44 44c24.262 0 44-19.738 44-44s-19.738-44-44-44zm0 68c-13.233 0-24-10.767-24-24s10.767-24 24-24 24 10.767 24 24-10.767 24-24 24z"/><path d="m401.197 48.333c-5.523 0-10 4.477-10 10v56.834c0 5.524 4.477 10.001 10 10.001s10-4.477 10-10v-56.835c0-5.523-4.477-10-10-10z"/><path d="m408.267 18.43c-1.86-1.86-4.44-2.93-7.07-2.93s-5.21 1.07-7.07 2.93-2.93 4.44-2.93 7.07 1.07 5.21 2.93 7.07 4.44 2.93 7.07 2.93 5.21-1.07 7.07-2.93 2.93-4.44 2.93-7.07-1.07-5.21-2.93-7.07z"/><path d="m204.375 12.755c-5.523 0-10 4.477-10 10v41c0 5.523 4.477 10 10 10s10-4.477 10-10v-41c0-5.523-4.477-10-10-10z"/><path d="m68.197 0c-5.523 0-10 4.477-10 10v65.168c0 5.523 4.477 10 10 10s10-4.477 10-10v-65.168c0-5.523-4.477-10-10-10z"/><path d="m75.267 105.6c-1.86-1.87-4.44-2.93-7.07-2.93s-5.21 1.06-7.07 2.93c-1.86 1.86-2.93 4.43-2.93 7.07 0 2.63 1.07 5.21 2.93 7.07s4.44 2.93 7.07 2.93 5.21-1.07 7.07-2.93 2.93-4.44 2.93-7.07c0-2.64-1.07-5.21-2.93-7.07z"/><path d="m372.417 208.93c-1.86-1.86-4.44-2.93-7.07-2.93-2.64 0-5.22 1.07-7.07 2.93-1.87 1.86-2.93 4.44-2.93 7.07s1.06 5.21 2.93 7.07c1.86 1.86 4.43 2.93 7.07 2.93 2.63 0 5.2-1.07 7.07-2.93 1.86-1.86 2.93-4.44 2.93-7.07s-1.07-5.21-2.93-7.07z"/></g></svg>