<svg enable-background="new 0 0 512 512" height="512" viewBox="0 0 512 512" width="512" xmlns="http://www.w3.org/2000/svg"><g fill="#00aeef"><path d="m384 0h-256c-23.521 0-42.667 19.146-42.667 42.667v426.667c0 23.52 19.146 42.666 42.667 42.666h256c23.521 0 42.667-19.146 42.667-42.667v-426.666c0-23.521-19.146-42.667-42.667-42.667zm21.333 469.333c0 11.771-9.563 21.333-21.333 21.333h-256c-11.771 0-21.333-9.563-21.333-21.333v-42.667h298.667v42.667zm0-64h-298.666v-362.666c0-11.771 9.563-21.333 21.333-21.333h256c11.771 0 21.333 9.563 21.333 21.333z"/><path d="m245.333 64h21.333c5.896 0 10.667-4.771 10.667-10.667s-4.771-10.667-10.667-10.667h-21.333c-5.896 0-10.667 4.771-10.667 10.667.001 5.896 4.772 10.667 10.667 10.667z"/><path d="m224 469.333h64c5.896 0 10.667-4.771 10.667-10.667s-4.771-10.666-10.667-10.666h-64c-5.896 0-10.667 4.771-10.667 10.667s4.771 10.666 10.667 10.666z"/><circle cx="373.333" cy="53.333" r="10.667"/><path d="m256 117.333c-64.688 0-117.333 52.646-117.333 117.333s52.646 117.334 117.333 117.334 117.333-52.646 117.333-117.333-52.645-117.334-117.333-117.334zm0 213.334c-52.938 0-96-43.063-96-96s43.063-96 96-96 96 43.063 96 96-43.062 96-96 96z"/><path d="m256 160c-5.896 0-10.667 4.771-10.667 10.667v85.333c0 5.896 4.771 10.667 10.667 10.667s10.667-4.771 10.667-10.667v-85.333c0-5.896-4.771-10.667-10.667-10.667z"/><circle cx="256" cy="298.667" r="10.667"/></g></svg>