<svg enable-background="new 0 0 511.999 511.999" height="512" viewBox="0 0 511.999 511.999" width="512" xmlns="http://www.w3.org/2000/svg"><path d="m501.001 201.683c-.057-.057-.115-.112-.175-.167-18.637-17.167-40.326-9.207-54.411 3.964l-30.447 25.249c-18.624-18.472-43.554-29.277-69.816-30.157v-102.289h24.128c18.898 0 34.273-15.376 34.273-34.273v-37.109c0-4.143-3.357-7.5-7.5-7.5h-31.627c-18.898 0-34.274 15.376-34.274 34.275v4.446c-9.781-10.529-23.733-17.134-39.204-17.134h-41.048c-4.143 0-7.5 3.357-7.5 7.5v30.924c0 29.515 24.012 53.526 53.526 53.526h34.226v68.209c-32.958 3.631-62.213 22.706-78.852 51.812-8.353.75-13.989 2.144-20.7 4.698-.066.025-.133.052-.198.079l-50.829 21.02-.707-1.876c-3.292-8.735-13.022-13.135-21.756-9.843-54.415 20.504-97.165 36.609-146.355 55.152-9.383 3.528-14.12 13.982-10.583 23.369l50.979 135.284c3.521 9.35 13.948 14.13 23.371 10.58 11.935-4.497 131.215-49.448 146.356-55.153 8.733-3.289 13.145-13.019 9.851-21.754l-.661-1.754c27.689-11.755 27.18-12.72 58.334-12.72 5.285 0 8.107-3.698 8.108-7.497.002-3.8-2.886-7.503-7.886-7.503-34.34 0-35.862 1.766-63.851 13.672l-39.91-105.91 51.17-21.161c14.756-5.597 23.594-4.398 96.985-4.398 8.155 0 13.826 2.805 17.334 8.573 2.467 4.057 3.082 8.328 3.206 9.445-.221 2.95-1.968 16.626-15.425 18.911-20.55 3.488-64.868 9.834-65.314 9.897-4.1.587-6.948 4.387-6.362 8.487.582 4.07 4.346 6.946 8.487 6.362.446-.064 44.956-6.438 65.699-9.958 19-3.226 26.048-19.425 27.594-29.993l86.822-71.99c.087-.072.173-.146.257-.223l.344-.319c8.633-8.072 21.514-15.301 33.913-3.968 14.025 13.898 1.144 30.439-1.809 33.854-3.461 3.719-109.59 117.745-109.59 117.745-.055.059-.108.119-.162.18-15.357 17.607-36.133 20.525-44.539 20.952-3.305 0-6.438-.005-9.443-.013-.007 0-.014 0-.02 0-4.134 0-7.489 3.346-7.5 7.48-.011 4.143 3.339 7.509 7.48 7.52 3.074.008 6.281.013 9.668.013.119 0 .238-.003.358-.009 10.197-.487 35.971-3.995 55.218-25.99 109.633-117.791 109.634-117.792 109.684-117.848.025-.029.052-.059.078-.089 9.695-11.114 20.813-35.12 1.005-54.58zm-154.849-120.856v-27.151c0-10.627 8.646-19.274 19.273-19.274h24.128v29.606c0 10.628-8.646 19.273-19.273 19.273h-24.128zm-15.677 37.112h-33.548c-21.243 0-38.526-17.283-38.526-38.526v-23.424h33.547c21.244 0 38.527 17.283 38.527 38.526zm-112.783 301.868c.363.963-.11 2.052-1.102 2.425l-33.371 12.577-21.684-57.541c-1.461-3.877-5.787-5.834-9.663-4.374-3.876 1.461-5.834 5.787-4.374 9.663l21.684 57.541c-25.149 9.478-88.578 33.382-98.945 37.288-1.606.608-3.427-.192-4.045-1.831l-50.984-135.282c-.609-1.618.199-3.429 1.832-4.043 32.152-12.121 76.524-28.841 98.945-37.289l19.16 50.843c1.462 3.877 5.792 5.833 9.663 4.374 3.876-1.461 5.834-5.787 4.374-9.663l-19.16-50.842 33.375-12.577c.982-.368 2.061.123 2.428 1.097 2.862 7.589 49.959 132.572 51.867 137.634zm148.62-147.898c-4.471-9.832-14.082-19.667-32.292-19.667-29.946 0-49.896-.212-63.405-.044 16.63-22.91 43.199-36.69 72.058-36.69 23.072 0 45.154 8.97 61.692 24.844z" fill="#094e69"/></svg>