<svg enable-background="new 0 0 480.21 480.21" height="512" viewBox="0 0 480.21 480.21" width="512" xmlns="http://www.w3.org/2000/svg"><path d="m372.189 256.191-51.928-66.104c18.439-18.904 29.574-43.737 31.424-70.08h80.408v8.8c-18.613 3.825-31.979 20.198-32 39.2.005 22.091 17.917 39.996 40.008 39.992s39.996-17.917 39.992-40.008c-.004-19.005-13.379-35.383-32-39.184v-16.8c0-4.418-3.582-8-8-8h-88.408c-1.564-22.165-9.728-43.355-23.44-60.84l11.16-11.16h94.16c4.418 12.497 18.131 19.046 30.627 14.627 12.497-4.418 19.046-18.131 14.627-30.627s-18.13-19.046-30.626-14.628c-6.835 2.416-12.211 7.793-14.627 14.627h-97.472c-2.122 0-4.156.844-5.656 2.344l-12.92 12.92c-44.458-42.816-115.208-41.485-158.025 2.973-18.198 18.896-29.169 43.592-30.991 69.763h-67.2l-26.153-58.823c11.691-6.153 16.181-20.617 10.029-32.308s-20.617-16.18-32.308-10.028c-11.69 6.152-16.18 20.616-10.028 32.307 3.233 6.144 8.977 10.581 15.739 12.156l30.2 67.952c1.286 2.887 4.152 4.746 7.312 4.744h72.408c1.842 26.04 12.762 50.608 30.856 69.424l-67.536 67.536c-43.669-6.543-84.374 23.553-90.917 67.222-6.543 43.669 23.553 84.374 67.222 90.917 1.318.198 2.641.362 3.967.493v40.408c0 4.418 3.582 8 8 8h73.472c4.418 12.497 18.131 19.046 30.627 14.627s19.046-18.131 14.627-30.627-18.131-19.046-30.627-14.627c-6.835 2.416-12.211 7.793-14.627 14.627h-65.472v-32.408c43.938-4.38 76.007-43.55 71.627-87.489-2.964-29.732-22.26-55.331-50.027-66.367l61.6-61.6c40.116 31.586 96.582 31.813 136.952.552l44.384 56.496c-61.285 8.549-104.036 65.16-95.487 126.444 8.549 61.285 65.16 104.036 126.444 95.487 61.285-8.549 104.036-65.16 95.487-126.444-7.508-53.83-52.569-94.507-106.884-96.486zm91.904-88.184c0 13.255-10.745 24-24 24s-24-10.745-24-24 10.745-24 24-24 24 10.745 24 24zm-8-152c4.418 0 8 3.582 8 8s-3.582 8-8 8-8-3.582-8-8 3.582-8 8-8zm-432 16c-4.418 0-8-3.582-8-8s3.582-8 8-8 8 3.582 8 8-3.582 8-8 8zm152 416c4.418 0 8 3.582 8 8s-3.582 8-8 8-8-3.582-8-8 3.582-8 8-8zm-64-56.656c-19.771 11.546-44.229 11.546-64 0v-15.344c0-17.673 14.327-32 32-32s32 14.327 32 32zm-48-79.344c0-8.837 7.163-16 16-16s16 7.163 16 16-7.163 16-16 16-16-7.164-16-16zm64-18.472c10.342 11.727 16.034 26.835 16 42.472-.003 15.546-5.694 30.553-16 42.192v-2.192c-.01-17.49-9.533-33.591-24.856-42.024 12.203-12.784 11.731-33.04-1.053-45.243-12.784-12.202-33.04-11.731-45.243 1.053-11.803 12.365-11.803 31.824 0 44.189-15.32 8.435-24.839 24.535-24.848 42.024v2.192c-23.379-26.51-20.841-66.953 5.668-90.332 26.51-23.379 66.953-20.841 90.332 5.669zm168-103.736c-33.397 24.246-78.603 24.246-112 0v-19.392c0-14.58 11.82-26.4 26.4-26.4h17.76l-11.608 29.024c-1.189 2.973-.49 6.37 1.776 8.632l16 16c3.124 3.123 8.188 3.123 11.312 0l16-16c2.266-2.263 2.965-5.659 1.776-8.632l-11.6-29.024h17.784c14.58 0 26.4 11.82 26.4 26.4zm-54.855-129.912c-.3.5-.544 1.03-.728 1.583-4.048 12.136-25.903 16.736-39.975 18.072 2.146-26.81 14.762-39.536 39.559-39.536 22.704 0 35.2 10.736 38.776 33.136l-26.656-16c-3.79-2.272-8.704-1.043-10.976 2.745zm9.887 15.272 28.592 17.16c-3.208 19.584-27.344 35.688-39.624 35.688-17.843-3.039-32.686-15.412-38.888-32.416 13.696-1.128 38.424-5.28 49.92-20.432zm-4.424 98.92-6.608 6.616-6.608-6.616 6.608-16.536zm28.296-45.704c12.48-9.821 20.159-24.515 21.096-40.368 0-52.896-30.456-64-56-64s-56 11.104-56 64c.93 15.862 8.61 30.566 21.096 40.392-21.206 2.613-37.127 20.641-37.096 42.008v4.864c-35.069-39.764-31.263-100.429 8.502-135.498 39.765-35.069 100.429-31.263 135.498 8.501 32 36.285 32 90.711 0 126.996v-4.864c.043-21.375-15.881-39.418-37.096-42.031zm149.096 317.424c-33.397 24.246-78.603 24.246-112 0v-19.392c0-14.58 11.82-26.4 26.4-26.4h17.76l-11.608 29.024c-1.189 2.973-.49 6.369 1.776 8.632l16 16c3.124 3.123 8.188 3.123 11.312 0l16-16c2.266-2.263 2.965-5.659 1.776-8.632l-11.6-29.024h17.784c14.58 0 26.4 11.82 26.4 26.4zm-44.968-114.64v-.008l28.592 17.16c-3.208 19.592-27.344 35.696-39.624 35.696-17.843-3.039-32.686-15.412-38.888-32.416 13.696-1.128 38.424-5.281 49.92-20.432zm-50.592 4.384c2.144-26.808 14.76-39.536 39.56-39.536 22.704 0 35.2 10.736 38.776 33.136l-26.656-16c-3.789-2.273-8.703-1.044-10.976 2.745-.3.5-.544 1.03-.728 1.583-4.048 12.136-25.904 16.736-39.976 18.072zm46.168 94.536-6.608 6.616-6.608-6.616 6.608-16.536zm65.392 1.215v-4.888c.043-21.376-15.881-39.418-37.096-42.032 12.48-9.821 20.159-24.515 21.096-40.368 0-52.896-30.456-64-56-64s-56 11.104-56 64c.93 15.862 8.61 30.566 21.096 40.392-21.206 2.613-37.127 20.641-37.096 42.008v4.864c-34.987-39.795-31.089-100.419 8.706-135.406s100.419-31.089 135.406 8.706c15.416 17.534 23.909 40.088 23.888 63.435-.005 23.32-8.541 45.831-24 63.289z" fill="#094e69"/></svg>