<svg enable-background="new 0 0 50 50" viewBox="0 0 50 50" xmlns="http://www.w3.org/2000/svg"><g fill="#094e69"><path d="m28.3 44.2c-.5 0-.8.4-.8.9 0 .2 0 .4-.1.6-.1.4.1.9.6 1h.2c.4 0 .7-.2.8-.6.1-.3.1-.7.1-1.1.1-.4-.3-.8-.8-.8z"/><path d="m22.5 45.1c0-.2 0-.4.1-.6.1-.4-.2-.9-.6-1s-.9.2-1 .6c-.1.3-.1.7-.1 1.1h.8-.8c0 .5.4.8.8.8.4-.1.8-.5.8-.9z"/><path d="m26.3 47.2c-.2.1-.4.2-.6.3-.4.1-.7.6-.6 1s.4.6.8.6h.2c.4-.1.7-.2 1-.4.4-.2.5-.7.3-1.1-.2-.5-.7-.6-1.1-.4z"/><path d="m23.8 47.2c-.2-.1-.4-.2-.5-.4-.3-.3-.9-.3-1.2 0s-.3.9 0 1.2.5.5.9.7c.1.1.3.1.4.1.3 0 .6-.2.7-.4.2-.4.1-.9-.3-1.2z"/><path d="m26.2 42.9c.2.1.4.2.5.4.2.2.4.2.6.2s.4-.1.6-.3c.3-.3.3-.9 0-1.2s-.5-.5-.9-.7-.9-.1-1.1.3c-.2.5-.1 1.1.3 1.3z"/><path d="m23.9 41c-.4.1-.7.2-1 .4-.4.2-.5.7-.3 1.1.2.3.4.4.7.4.1 0 .3 0 .4-.1.2-.1.4-.2.6-.3.4-.1.7-.6.6-1-.1-.3-.6-.6-1-.5z"/><path d="m5 44.2h-.8c-.5 0-.8.4-.8.8s.4.8.8.8h.8c.5 0 .8-.4.8-.8s-.3-.8-.8-.8z"/><path d="m8.3 44.2h-.8c-.5 0-.8.4-.8.8s.4.8.8.8h.8c.5 0 .8-.4.8-.8s-.3-.8-.8-.8z"/><path d="m1.7 44.2h-.9c-.5 0-.8.4-.8.8s.4.8.8.8h.8c.5 0 .8-.4.8-.8s-.3-.8-.7-.8z"/><path d="m11.7 44.2h-.8c-.5 0-.8.4-.8.8s.4.8.8.8h.8c.5 0 .8-.4.8-.8s-.4-.8-.8-.8z"/><path d="m15 44.2h-.8c-.5 0-.8.4-.8.8s.4.8.8.8h.8c.5 0 .8-.4.8-.8s-.3-.8-.8-.8z"/><path d="m18.3 44.2h-.8c-.5 0-.8.4-.8.8s.4.8.8.8h.8c.5 0 .8-.4.8-.8s-.3-.8-.8-.8z"/><path d="m35.8 44.2h-.8c-.5 0-.8.4-.8.8s.4.8.8.8h.8c.5 0 .8-.4.8-.8s-.3-.8-.8-.8z"/><path d="m49.2 44.2h-.8c-.5 0-.8.4-.8.8s.4.8.8.8h.8c.5 0 .8-.4.8-.8s-.4-.8-.8-.8z"/><path d="m45.8 44.2h-.8c-.5 0-.8.4-.8.8s.4.8.8.8h.8c.5 0 .8-.4.8-.8s-.3-.8-.8-.8z"/><path d="m42.5 44.2h-.8c-.5 0-.8.4-.8.8s.4.8.8.8h.8c.5 0 .8-.4.8-.8s-.3-.8-.8-.8z"/><path d="m39.2 44.2h-.8c-.5 0-.8.4-.8.8s.4.8.8.8h.8c.5 0 .8-.4.8-.8s-.4-.8-.8-.8z"/><path d="m32.5 44.2h-.8c-.5 0-.8.4-.8.8s.4.8.8.8h.8c.5 0 .8-.4.8-.8s-.3-.8-.8-.8z"/><path d="m24.2 35.1v.8c0 .5.4.8.8.8.5 0 .8-.4.8-.8v-.8c0-.5-.4-.8-.8-.8-.5-.1-.8.3-.8.8z"/><path d="m25.8 39.2v-.8c0-.5-.4-.8-.8-.8-.5 0-.8.4-.8.8v.8c0 .5.4.8.8.8.5.1.8-.3.8-.8z"/><path d="m.7 18.4c-.4.6-.7 1.4-.7 2.2v9.8c0 2.1 1.7 3.8 3.8 3.8h21.2 21.2c2.1 0 3.8-1.7 3.8-3.8v-9.8c0-.8-.3-1.6-.7-2.2zm8.1 10.8c-2.1 0-3.8-1.7-3.8-3.8s1.7-3.8 3.8-3.8 3.8 1.7 3.8 3.8-1.8 3.8-3.8 3.8zm19.5-4.1c-.5 0-.8-.4-.8-.8 0-.5.4-.8.8-.8.5 0 .8.4.8.8.1.4-.3.8-.8.8zm1.7 2.5c-.5 0-.8-.4-.8-.8 0-.5.4-.8.8-.8.5 0 .8.4.8.8s-.3.8-.8.8zm1.7-2.5c-.5 0-.8-.4-.8-.8 0-.5.4-.8.8-.8.5 0 .8.4.8.8s-.4.8-.8.8zm1.6 2.5c-.5 0-.8-.4-.8-.8 0-.5.4-.8.8-.8s.8.4.8.8-.3.8-.8.8zm1.7-2.5c-.5 0-.8-.4-.8-.8 0-.5.4-.8.8-.8s.8.4.8.8-.3.8-.8.8zm1.7 2.5c-.5 0-.8-.4-.8-.8 0-.5.4-.8.8-.8.5 0 .8.4.8.8s-.4.8-.8.8zm1.6-2.5c-.5 0-.8-.4-.8-.8 0-.5.4-.8.8-.8s.8.4.8.8c.1.4-.3.8-.8.8zm1.7 2.5c-.5 0-.8-.4-.8-.8 0-.5.4-.8.8-.8s.8.4.8.8-.3.8-.8.8zm1.7-2.5c-.5 0-.8-.4-.8-.8 0-.5.4-.8.8-.8.5 0 .8.4.8.8s-.4.8-.8.8zm1.6 2.5c-.5 0-.8-.4-.8-.8 0-.5.4-.8.8-.8s.8.4.8.8-.3.8-.8.8z"/><path d="m46.2.9h-42.4c-2.1 0-3.8 1.7-3.8 3.8v9.8c0 .8.3 1.6.7 2.2h48.6c.4-.6.7-1.4.7-2.2v-9.8c0-2.1-1.7-3.8-3.8-3.8zm-37.4 12.5c-2.1 0-3.8-1.7-3.8-3.8s1.7-3.7 3.8-3.7 3.8 1.7 3.8 3.7-1.8 3.8-3.8 3.8zm19.5-4.2c-.5 0-.8-.4-.8-.8 0-.5.4-.8.8-.8.5 0 .8.4.8.8.1.5-.3.8-.8.8zm1.7 2.5c-.5 0-.8-.4-.8-.8s.4-.8.8-.8c.5 0 .8.4.8.8s-.3.8-.8.8zm1.7-2.5c-.5 0-.8-.4-.8-.8 0-.5.4-.8.8-.8.5 0 .8.4.8.8 0 .5-.4.8-.8.8zm1.6 2.5c-.5 0-.8-.4-.8-.8s.4-.8.8-.8.8.4.8.8-.3.8-.8.8zm1.7-2.5c-.5 0-.8-.4-.8-.8 0-.5.4-.8.8-.8s.8.4.8.8c0 .5-.3.8-.8.8zm1.7 2.5c-.5 0-.8-.4-.8-.8s.4-.8.8-.8c.5 0 .8.4.8.8s-.4.8-.8.8zm1.6-2.5c-.5 0-.8-.4-.8-.8 0-.5.4-.8.8-.8s.8.4.8.8c.1.5-.3.8-.8.8zm1.7 2.5c-.5 0-.8-.4-.8-.8s.4-.8.8-.8.8.4.8.8-.3.8-.8.8zm1.7-2.5c-.5 0-.8-.4-.8-.8 0-.5.4-.8.8-.8.5 0 .8.4.8.8 0 .5-.4.8-.8.8zm1.6 2.5c-.5 0-.8-.4-.8-.8s.4-.8.8-.8.8.4.8.8-.3.8-.8.8z"/></g></svg>