<svg enable-background="new 0 0 300.723 300.723" height="512" viewBox="0 0 300.723 300.723" width="512" xmlns="http://www.w3.org/2000/svg"><g fill="#094e69"><path d="m252.965 129.74c-.346.472-.66.982-1.036 1.43-.021-.016-.03-.043-.041-.059.396-.462.717-.935 1.077-1.43-5.424-1.836-11.131-3.291-17.042-3.875 5.911.531 11.618 1.869 17.042 3.707 2.736-3.732 4.423-8.173 4.423-13.144 0-6.104-2.453-10.271-6.403-14.335-.244.239-.528.457-.782.691-4.032-3.796-9.395-6.198-15.36-6.198 6.332 0 10.739 1.341 14.843 5.558 3.809-3.659 5.108-9.63 5.108-15.11v-29.497c0-13.766-13.67-23.349-24.867-23.349h-206.502c-12.438 0-22.551 10.514-22.551 22.953 0 5.637 2.074 10.996 5.507 14.949-3.433 3.956-5.507 9.214-5.507 14.846 0 6.104 2.455 12.974 6.406 17.039 5.761-5.538 14.32-7.389 21.061-7.389h-4.916c-3.831 0-6.952-3.968-6.952-7.8 0-3.826 3.121-7.8 6.952-7.8h184.569v-15.598h-184.569c-3.831 0-6.952-3.968-6.952-7.8s3.121-7.8 6.952-7.8h206.501c5.342 0 9.268 5.454 9.268 7.749v29.498c0 2.293-3.926 9.552-9.268 9.552h-201.586c-6.563 0-14.825 3.052-20.576 8.32-.312-.297-.63-.589-.922-.883-3.805 3.663-6.842 7.035-6.842 12.514v29.498c0 13.766 17.138 23.348 28.34 23.348h137.689c-3.656 5.2-5.702 17.448-5.702 27.269 0 38.705 31.488 70 70.198 70 38.709 0 70.197-31.59 70.197-70.294.001-30.864-20.032-57.171-47.757-66.56zm4.428 16.265c0 .884-.162 1.698-.259 2.557 16.681 9.358 27.989 27.183 27.989 47.632 0 30.107-24.49 54.598-54.598 54.598s-54.599-24.09-54.599-54.197c0-10.104 2.808-22.068 7.606-27.269 3.57-5.199 8.272-10.399 13.817-15.6 9.212-10.399 20.688-11.729 33.175-11.729 3.509 0 6.937-.287 10.262.353-1.198-2.095-3.366-4.222-5.945-4.222 2.579 0 4.747 1.924 5.945 4.019 5.83 1.112 11.324 3.379 16.347 6.192.097-.838.243-1.554.254-2.407.001.02.006.045.006.073zm-20.612-12.284c6.87.759 13.411 2.699 19.443 5.441.021.066.066.13.086.201-6.062-2.76-12.628-4.824-19.529-5.642zm-213.356-21.594c-.993 0-1.98-.124-2.958-.307.977.129 1.945.307 2.958.307zm4.915 41.599c-5.342 0-12.741-5.453-12.741-7.749v-29.498c0-2.292 7.398-4.352 12.741-4.352h201.585 4.916c3.833 0 6.951 1.369 6.951 5.2 0 3.826-3.118 5.2-6.951 5.2h-188.042v15.6h143.128c-5.5 5.2-10.399 10.4-14.574 15.599zm262.851 42.507c0-25.207-14.157-46.918-35.688-56.738-.011-.023-.447-.038-.452-.059 21.556 9.828 36.14 31.514 36.14 56.757z"/><path d="m236.151 189.15c-1.569-.62-2.818-2.448-2.788-4.124l.224-11.436c.03-1.681 1.468-3.006 3.017-2.346 1.462.624 2.544 1.625 3.245 3.011.375.742.675 1.742.894 2.981.299 1.66 1.716 3.046 3.402 3.082l6.007.111c1.686.036 3.057-1.305 2.874-2.98-.599-5.332-2.833-8.978-6.551-11.857-.335-.269-.609-.776-.979-1.021-2.204-1.665-5.038-2.925-8.587-3.585-1.66-.3-2.915-1.879-2.915-3.564v-.112c0-1.681-1.31-3.066-2.539-3.092-1.239-.025-2.661 1.314-2.661 3.001v.025c0 1.686-1.106 3.112-2.777 3.306-1.681.183-2.889.437-3.945.757-2.682.776-5.058 2.63-7.271 4.768-.904.854-1.604 3.25-2.301 3.25-.64 0-1.208 1.585-1.676 2.691-.979 2.315-1.498 4.499-1.554 7.354-.086 4.326 1.041 8.043 3.397 11.156 2.346 3.112 6.429 5.58 12.253 7.413l1.854.59c1.025.319 1.823 1.949 1.792 3.631l-.269 13.548c-.03 1.686-1.422 2.833-2.98 2.203-1.895-.771-3.24-1.868-4.037-3.295-.528-.95-.955-2.55-1.29-4.789-.244-1.665-1.717-3.047-3.402-3.087l-6.327-.122c-1.686-.03-3.103 1.31-3.017 2.991.366 6.911 2.813 11.953 7.354 15.137 2.417 1.666 5.9 2.915 10.43 3.748 1.655.305 2.986 1.838 2.955 3.524l-.056 3.057c-.03 1.686.939 3.067 2.174 3.093 1.233.025 2.26-1.326 2.29-3.007l.061-3.153c.031-1.686 1.433-3.107 3.093-3.356 3.509-.522 6.632-1.6 9.369-3.225 5.738-3.382 8.684-8.947 8.835-16.671.112-5.854-1.858-10.436-5.915-13.736-2.131-1.701-6.025-3.666-11.683-5.87zm-7.225-5.504c-.031 1.686-1.239 2.681-2.62 2.041-.976-.446-1.758-.914-2.366-1.392-1.899-1.538-2.824-3.595-2.773-6.175.046-2.355.727-4.209 2.037-5.55.756-.777 1.751-1.325 2.96-1.66 1.625-.442 2.985 1 2.955 2.681zm9.049 33.509c-.64.441-1.482.807-2.539 1.076-1.478.381-2.696-.889-2.661-2.574l.224-11.893c.03-1.687 1.341-2.575 2.844-1.818 1.107.563 1.97 1.107 2.579 1.636 1.758 1.573 2.61 3.671 2.56 6.307-.073 3.467-1.068 5.89-3.007 7.266z"/></g></svg>