<svg enable-background="new 0 0 512 512" height="512" viewBox="0 0 512 512" width="512" xmlns="http://www.w3.org/2000/svg"><g fill="#094e69"><path d="m488.399 492h-21.933v-318.464c0-14.823-12.06-26.882-26.882-26.882h-49.024c-14.823 0-26.882 12.06-26.882 26.882v318.464h-55.692v-174.175c0-14.823-12.059-26.882-26.882-26.882h-49.024c-14.823 0-26.882 12.06-26.882 26.882v174.175h-55.692v-90.204c0-14.823-12.06-26.882-26.882-26.882h-49.025c-14.823 0-26.882 12.06-26.882 26.882v90.204h-23.116c-5.523 0-10 4.477-10 10s4.477 10 10 10h464.798c5.523 0 10-4.477 10-10s-4.477-10-10-10zm-358.895 0h-62.788v-90.204c0-3.795 3.087-6.882 6.882-6.882h49.024c3.795 0 6.882 3.087 6.882 6.882zm158.481 0h-62.788v-174.175c0-3.795 3.087-6.882 6.882-6.882h49.024c3.794 0 6.882 3.087 6.882 6.882zm158.481 0h-62.788v-318.464c0-3.795 3.087-6.882 6.882-6.882h49.024c3.795 0 6.882 3.087 6.882 6.882z"/><path d="m466.442 10.516c.14-2.729-.82-5.504-2.904-7.588s-4.859-3.045-7.588-2.904c-.161-.007-.32-.024-.484-.024h-60.5c-5.523 0-10 4.477-10 10s4.477 10 10 10h37.357l-98.857 98.858-37.28-37.28c-1.875-1.875-4.419-2.929-7.071-2.929s-5.196 1.054-7.071 2.929l-179.769 179.77c-3.905 3.905-3.905 10.237 0 14.143 1.953 1.951 4.512 2.927 7.071 2.927s5.119-.976 7.071-2.929l172.698-172.699 37.28 37.28c3.905 3.905 10.237 3.905 14.143 0l105.928-105.927v33.81c0 5.523 4.477 10 10 10s10-4.477 10-10v-56.953c0-.163-.017-.322-.024-.484z"/><circle cx="75.64" cy="303.31" r="10"/></g></svg>