<svg enable-background="new 0 0 50 50" viewBox="0 0 50 50" xmlns="http://www.w3.org/2000/svg"><g fill="#00aeef"><path d="m46.7.8h-43.4c-1.8 0-3.3 1.5-3.3 3.4v27.5c0 .5.4.8.8.8h48.3c.5 0 .8-.4.8-.8v-27.5c.1-1.9-1.4-3.4-3.2-3.4zm1.6 30h-46.6v-26.6c0-.9.7-1.7 1.7-1.7h43.3c.9 0 1.7.7 1.7 1.7v26.6z"/><path d="m49.2 30.8h-48.4c-.5 0-.8.4-.8.8v4.2c0 1.8 1.5 3.3 3.3 3.3h43.3c1.8 0 3.3-1.5 3.3-3.3v-4.2c.1-.4-.3-.8-.7-.8zm-.9 5c0 .9-.7 1.7-1.7 1.7h-43.3c-.9 0-1.7-.7-1.7-1.7v-3.3h46.7z"/><path d="m27.5 34.2h-5c-.5 0-.8.4-.8.8s.4.8.8.8h5c.5 0 .8-.4.8-.8s-.3-.8-.8-.8z"/><path d="m45.8 4.2h-41.6c-.5 0-.9.3-.9.8v26.7c0 .5.4.8.8.8h41.7c.5 0 .8-.4.8-.8v-26.7c.1-.5-.3-.8-.8-.8zm-.8 26.6h-40v-25h40z"/><path d="m35.8 44.2h-21.6c-1.4 0-2.5 1.1-2.5 2.5s1.1 2.5 2.5 2.5h21.7c1.4 0 2.5-1.1 2.5-2.5-.1-1.4-1.2-2.5-2.6-2.5zm0 3.3h-21.6c-.5 0-.8-.4-.8-.8s.4-.8.8-.8h21.7c.5 0 .8.4.8.8s-.4.8-.9.8z"/><path d="m34.2 44.2c-2.8 0-4.2-2-4.2-5.8 0-.5-.4-.8-.8-.8h-8.3c-.5 0-.8.4-.8.8 0 3.9-1.4 5.8-4.2 5.8-.5 0-.8.4-.8.8 0 .5.4.8.8.8h18.3c.5 0 .8-.4.8-.8 0-.5-.4-.8-.8-.8zm-14.3 0c1-1.1 1.6-2.8 1.8-5h6.7c.1 2.2.7 3.9 1.8 5z"/><path d="m39.8 25.4-2-2 1.1-1.1c.2-.2.3-.5.2-.8s-.3-.5-.6-.6l-8.3-2.5c-.3-.1-.6 0-.8.2s-.3.5-.2.8l2.5 8.3c.1.3.3.5.6.6s.6 0 .8-.2l1.2-1.2 2 2c.2.2.4.2.6.2s.4-.1.6-.2l2.4-2.4c.2-.3.2-.8-.1-1.1zm-2.9 1.8-1.9-1.9c-.2-.2-.5-.3-.8-.3s-.6.1-.8.3l-.6.6-1.7-5.5 5.5 1.7-.6.6c-.2.2-.3.4-.3.7s.1.5.3.7l1.9 1.9z"/><path d="m35 7.5h-23.3c-.5 0-.8.4-.8.8v4.2c0 .5.4.8.8.8h23.3c.5 0 .8-.4.8-.8v-4.2c0-.4-.3-.8-.8-.8zm-.8 4.2h-21.7v-2.5h21.7z"/><path d="m21.7 16.7h-6.7c-.5 0-.8.4-.8.8v3.3c0 .5.4.8.8.8h6.7c.5 0 .8-.4.8-.8v-3.3c0-.5-.4-.8-.8-.8zm-.9 3.3h-5v-1.7h5z"/><path d="m35 7.5h-23.3c-.5 0-.8.4-.8.8v15.8c0 .5.4.8.8.8h19.8c.3 0 .5-.1.7-.3s.2-.5.1-.7l-1.1-3.5 3.5 1.1c.3.1.5 0 .7-.1.2-.2.3-.4.3-.7v-12.4c.1-.4-.2-.8-.7-.8zm-.8 12-3.9-1.2c-.3-.1-.6 0-.8.2s-.3.5-.2.8l1.2 3.9h-18v-14h21.7z"/></g></svg>