<svg enable-background="new 0 0 50 50" viewBox="0 0 50 50" xmlns="http://www.w3.org/2000/svg"><g fill="#00aeef"><path d="m45.8 4.2h-27v-3.2c0-.6-.5-1-1-1h-6.3c-.6 0-1 .5-1 1v3.1h-6.3c-2.3.1-4.2 1.9-4.2 4.2v29.2c0 2.3 1.9 4.2 4.2 4.2h14.6c0 1.7-.4 4.3-1.6 5.6-.4.5-.9.7-1.6.7-.6 0-1 .5-1 1s.5 1 1 1h18.8c.6 0 1-.5 1-1s-.5-1-1-1c-.6 0-1.1-.2-1.6-.7-1.2-1.2-1.5-3.9-1.6-5.6h14.6c2.3 0 4.2-1.9 4.2-4.2v-29.2c0-2.3-1.9-4.1-4.2-4.1zm-34.3 8.3c.6 0 1-.5 1-1v-9.4h4.2v9.4c0 .6.5 1 1 1h1l-4.2 5.6-4.2-5.6zm7.8 35.4c1.3-1.9 1.5-4.7 1.5-6.3h8.3c0 1.5.3 4.3 1.5 6.3zm28.6-10.4c0 1.1-.9 2.1-2.1 2.1h-41.6c-1.1 0-2.1-.9-2.1-2.1v-4.2h45.8zm0-6.2h-45.8v-23c0-1.1.9-2.1 2.1-2.1h6.3v4.2h-2.2c-.4 0-.8.2-.9.6-.2.4-.1.8.1 1.1l6.2 8.3c.2.3.5.4.8.4s.6-.2.8-.4l6.3-8.3c.2-.3.3-.7.1-1.1s-.5-.6-.9-.6h-2.1v-4.1h27.1c1.1 0 2.1.9 2.1 2.1z"/><circle cx="25" cy="36.5" r="2.1"/><path d="m43 16.3-1-.3.5-.9c.2-.4.2-.9-.2-1.3l-2.1-2.1c-.3-.3-.9-.4-1.3-.2l-.9.5-.2-1c-.1-.5-.5-.8-1-.8h-2.8c-.5 0-.9.3-1 .8l-.2 1-.9-.5c-.4-.2-.9-.2-1.3.2l-2.1 2.1c-.3.3-.4.9-.2 1.3l.5.9-1 .2c-.5.1-.8.5-.8 1v2.9c0 .5.3.9.8 1l1 .2-.5.9c-.2.4-.2.9.2 1.3l2.1 2.1c.3.3.9.4 1.3.2l.9-.5.2 1c.1.5.5.8 1 .8h2.9c.5 0 .9-.3 1-.8l.2-1 .9.5c.4.2.9.2 1.3-.2l2.1-2.1c.3-.3.4-.9.2-1.3l-.6-.7 1-.2c.5-.1.8-.5.8-1v-2.9c0-.6-.4-1-.8-1.1zm-1.3 3.1-1 .3c-.3.1-.6.3-.7.7-.1.2-.1.3-.2.5-.2.3-.1.7 0 1l.5.9-.9.9-.9-.5c-.3-.2-.7-.2-1 0-.2.1-.3.1-.5.2-.3.1-.6.4-.7.7l-.3 1h-1.3l-.3-1c-.1-.3-.3-.6-.7-.7-.2-.1-.3-.1-.5-.2-.3-.2-.7-.1-1 0l-.9.5-.9-.9.5-.9c.2-.3.2-.7 0-1-.1-.2-.1-.3-.2-.5-.1-.3-.4-.6-.7-.7l-1-.3v-1.3l1-.3c.3-.1.6-.3.7-.7.1-.2.1-.3.2-.5.2-.3.1-.7 0-1l-.5-.9.9-.9.9.5c.3.2.7.2 1 0 .2-.1.3-.1.5-.2.3-.1.6-.4.7-.7l.3-1h1.3l.3 1c.1.3.3.6.7.7.2.1.3.1.5.2.3.2.7.1 1 0l.9-.5.9.9-.5.9c-.2.3-.2.7 0 1 .1.2.1.3.2.5.1.3.4.6.7.7l1 .3z"/><path d="m35.4 15.6c-1.7 0-3.1 1.4-3.1 3.1s1.4 3.1 3.1 3.1 3.1-1.4 3.1-3.1-1.4-3.1-3.1-3.1zm0 4.2c-.6 0-1-.5-1-1s.5-1 1-1 1 .5 1 1-.4 1-1 1z"/><path d="m21.9 22.9h-14.6c-.6 0-1 .5-1 1 0 .6.5 1 1 1h14.6c.6 0 1-.5 1-1s-.4-1-1-1z"/><path d="m15.6 27.1h-8.3c-.6 0-1 .5-1 1s.5 1 1 1h8.3c.6 0 1-.5 1-1s-.4-1-1-1z"/></g></svg>