<?xml version="1.0" encoding="utf-8"?>
<!-- Generator: Adobe Illustrator 19.0.0, SVG Export Plug-In . SVG Version: 6.00 Build 0)  -->
<svg version="1.1" id="Camada_1" xmlns="http://www.w3.org/2000/svg" xmlns:xlink="http://www.w3.org/1999/xlink" x="0px" y="0px"
	 viewBox="0 0 294.1 298.8" style="enable-background:new 0 0 294.1 298.8;" xml:space="preserve">
<style type="text/css">
	.st0{fill:#053C50;}
	.st1{fill:#00A9E2;}
</style>
<g id="XMLID_42_">
	<path id="XMLID_157_" class="st0" d="M65.9,142.8l-53.6,32.3c0,0-13.2,8.8-7.3,23.9c0,0-6.4,2.8-3.8,8.6c2.6,5.9,7.5,13.4,7.5,13.4
		s4,5.5,9.5,1.8c0,0,9.2,12.5,23.1,4.8c13.9-7.7,55-31.2,55-31.2L65.9,142.8z"/>
	<path id="XMLID_153_" class="st0" d="M194,162.2c-7.1-11.5-12.5-20.9-12.5-20.9s18.5-15.5,6.6-35.2c-10.7-17.9-31.9-8.8-31.9-8.8
		s-13.3-22.4-15.8-26.4c-3-5.7-16.1-12.3-22-3.7c-6.1,8.8-7.7,34.9-45.5,70.1l31.2,54.3c0,0,13.6-5.9,43.3-5.2
		c29.7,0.8,41.6,4.7,46.6,0C195.9,184.6,203,176.7,194,162.2z M176.8,134.4l-17.2-29.7c0,0,6.6-3.5,13.5-1.8
		c10.6,2.6,13.5,15,11.7,21.5C183.2,130.7,176.8,134.4,176.8,134.4z"/>
	<path id="XMLID_152_" class="st0" d="M93.3,212.8l26.2,54.5c0,0,6.8,11.2,0.6,15.3c-6.2,4.1-24.1,14.4-24.1,14.4s-5.7,4.5-9.9-0.4
		c-4.2-4.9-9-8.8-9.1-12.2c-0.1-3.4,1.8-4.8-1.6-7.1s-4.8-4.5-5.3-7.2c-0.5-2.7,2.3-6-0.7-8.5c-2.9-2.5-4.3-3.2-4.5-4.8
		c-0.2-1.6,0.9-5.1-2.5-7.9c-2-1.7-4.3-4.8-5.2-7.2c-1.5-3.8-1-10.8,2-13.2c1.5-1.3,20.6-12.5,28.8-17.2
		C89.8,210,92.3,210.8,93.3,212.8z"/>
	<g id="XMLID_48_">
		<path id="XMLID_151_" class="st1" d="M226.3,139.9c-0.6,0-1.2-0.1-1.8-0.3c-2.9-1-4.4-4.2-3.4-7c0.1-0.2,6.7-20.1-4.7-42.9
			c-11.1-22.2-32.7-23.9-32.9-23.9c-3-0.2-5.3-2.8-5.1-5.9c0.2-3,2.8-5.4,5.9-5.1c1.1,0.1,28.1,2.2,42,30
			c13.5,27.1,5.6,50.5,5.2,51.5C230.7,138.5,228.6,139.9,226.3,139.9z"/>
	</g>
	<g id="XMLID_45_">
		<path id="XMLID_47_" class="st1" d="M254.5,148.3c-0.6,0-1.2-0.1-1.8-0.3c-2.9-1-4.4-4.2-3.4-7c0.1-0.3,10.4-30.9-7.1-65.9
			C225,40.6,191.4,38,191.1,38c-3-0.2-5.3-2.8-5.1-5.9c0.2-3,2.8-5.4,5.9-5.1c1.6,0.1,40.2,3.1,60.3,43.2c19.7,39.3,8.1,73,7.6,74.5
			C258.9,146.9,256.8,148.3,254.5,148.3z"/>
	</g>
	<g id="XMLID_43_">
		<path id="XMLID_44_" class="st1" d="M283.9,156.5c-0.6,0-1.2-0.1-1.8-0.3c-2.9-1-4.4-4.2-3.4-7c0.1-0.4,14-41.4-9.5-88.3
			C246.1,14.6,200.8,11,200.3,11c-3-0.2-5.3-2.8-5.1-5.9c0.2-3,2.9-5.3,5.9-5.1c2.1,0.1,52.1,4,78,56c25.6,51.2,10.6,95,10,96.9
			C288.3,155.1,286.2,156.5,283.9,156.5z"/>
	</g>
</g>
</svg>
