<?xml version="1.0" encoding="utf-8"?>
<!-- Generator: Adobe Illustrator 19.0.0, SVG Export Plug-In . SVG Version: 6.00 Build 0)  -->
<svg version="1.1" id="Camada_1" xmlns="http://www.w3.org/2000/svg" xmlns:xlink="http://www.w3.org/1999/xlink" x="0px" y="0px"
	 viewBox="0 0 218.4 337.3" style="enable-background:new 0 0 218.4 337.3;" xml:space="preserve">
<style type="text/css">
	.st0{fill:#053C50;}
	.st1{fill:#FFB600;}
	.st2{fill:#0385AF;}
	.st3{fill:#00A9E2;}
	.st4{fill:#FFFFFF;}
</style>
<g id="XMLID_155_">
	<path id="XMLID_153_" class="st0" d="M39.3,85.2c0,0-28.7,5.3-35.7,12c-7,6.7-2.5,15.6,3.3,22.1S85,198.5,85,198.5v30.2
		c0,0,8.2-4.7,23.4-4.7s22.3,4.7,22.3,4.7v-27.8l74.1-72.9c0,0,19.6-19,11.7-28.4c-7.9-9.4-33.4-14.4-33.4-14.4l-2.1,6.2
		c0,0,8.5,2.3,12.9,5c4.4,2.6,17,11.1,1.8,16.4c-15.2,5.3-52.9,10.5-86.5,10.3s-67.5-5.1-76.2-7.1c-7.7-1.8-22.1-7.1-15.7-14.6
		c4.8-5.6,24.3-9.1,24.3-9.1L39.3,85.2z"/>
	<circle id="XMLID_152_" class="st1" cx="107.9" cy="285.8" r="51.5"/>
	<path id="XMLID_151_" class="st2" d="M122.1,55.7h-5.7c5.8-0.9,10.2-5.9,10.2-12c0-6.7-5.4-12.2-12.2-12.2
		c-6.7,0-12.2,5.4-12.2,12.2c0,6,4.4,11,10.2,12h-5.7c-3.9,0-7,3.2-7,7v37.2c0,3.9,3.2,7,7,7h15.2c3.9,0,7-3.2,7-7V62.7
		C129.2,58.8,126,55.7,122.1,55.7z"/>
	<path id="XMLID_48_" class="st2" d="M177.5,55.8l-4.4-1.9c4.8,1.2,9.9-1.1,11.9-5.8c2.2-5.2-0.1-11.2-5.3-13.4
		c-5.2-2.2-11.2,0.1-13.4,5.3c-2,4.7-0.3,10,3.9,12.6l-4.4-1.9c-3-1.3-6.5,0.1-7.8,3.1l-12.5,28.7c-1.3,3,0.1,6.5,3.1,7.8l11.7,5.1
		c3,1.3,6.5-0.1,7.8-3.1l12.5-28.7C181.9,60.6,180.5,57.1,177.5,55.8z"/>
	<path id="XMLID_47_" class="st2" d="M54.4,54.3l-3.8,2.4c3.5-3.1,4.3-8.2,1.8-12.3c-2.8-4.5-8.8-5.8-13.2-3
		c-4.5,2.8-5.8,8.8-3,13.2c2.6,4,7.6,5.5,11.9,3.7l-3.8,2.4c-2.6,1.6-3.4,5.1-1.7,7.7l15.7,24.8c1.6,2.6,5.1,3.4,7.7,1.7L76,88.5
		c2.6-1.6,3.4-5.1,1.7-7.7L62,56C60.4,53.5,56.9,52.7,54.4,54.3z"/>
	<path id="XMLID_45_" class="st3" d="M70.1,10.9l-2.2,2.4c1.9-2.8,1.5-6.6-1.1-9C64,1.8,59.6,2,57,4.8c-2.6,2.8-2.4,7.3,0.4,9.9
		c2.6,2.3,6.4,2.4,9,0.3l-2.2,2.4c-1.5,1.6-1.4,4.2,0.2,5.7l15.8,14.4c1.6,1.5,4.2,1.4,5.7-0.2l5.9-6.5c1.5-1.6,1.4-4.2-0.2-5.7
		L75.8,10.7C74.2,9.2,71.6,9.3,70.1,10.9z"/>
	<path id="XMLID_44_" class="st3" d="M144.5,8.4l-2.2-0.2c2.3-0.2,4.2-2,4.4-4.4c0.2-2.6-1.8-4.9-4.4-5.1s-4.9,1.8-5.1,4.4
		c-0.2,2.4,1.4,4.5,3.6,5l-2.2-0.2c-1.5-0.1-2.9,1-3,2.5L134.4,25c-0.1,1.5,1,2.9,2.5,3l6,0.5c1.5,0.1,2.9-1,3-2.5l1.1-14.6
		C147.1,9.8,146,8.5,144.5,8.4z"/>
	<g id="XMLID_156_">
		<path id="XMLID_157_" class="st4" d="M105.3,303.1v-15.3c-4.8-1.4-8.3-3.4-10.5-6.2c-2.2-2.8-3.3-6.1-3.3-10.1
			c0-4,1.3-7.4,3.8-10.1c2.5-2.7,5.9-4.3,10.1-4.7v-3.6h5.3v3.6c3.9,0.5,7,1.8,9.3,4c2.3,2.2,3.8,5.1,4.4,8.8l-9.3,1.2
			c-0.6-2.9-2-4.8-4.4-5.9v14.3c5.9,1.6,9.8,3.6,12,6.2c2.1,2.5,3.2,5.8,3.2,9.7c0,4.4-1.3,8.1-4,11.2c-2.7,3-6.4,4.9-11.1,5.6v6.8
			h-5.3v-6.7c-4.2-0.5-7.6-2.1-10.3-4.7c-2.6-2.6-4.3-6.4-5-11.2l9.5-1c0.4,2,1.1,3.6,2.2,5.1S104,302.4,105.3,303.1z M105.3,264.7
			c-1.4,0.5-2.6,1.3-3.4,2.5c-0.9,1.2-1.3,2.5-1.3,3.9c0,1.3,0.4,2.5,1.2,3.6s2,2,3.5,2.7V264.7z M110.6,303.6
			c1.8-0.3,3.3-1.2,4.5-2.5c1.1-1.4,1.7-2.9,1.7-4.8c0-1.6-0.5-3-1.4-4.2c-1-1.2-2.5-2.1-4.7-2.7V303.6z"/>
	</g>
</g>
</svg>
