<?xml version="1.0" encoding="utf-8"?>
<!-- Generator: Adobe Illustrator 19.0.0, SVG Export Plug-In . SVG Version: 6.00 Build 0)  -->
<svg version="1.1" id="Camada_1" xmlns="http://www.w3.org/2000/svg" xmlns:xlink="http://www.w3.org/1999/xlink" x="0px" y="0px"
	 viewBox="0 0 301.1 247" style="enable-background:new 0 0 301.1 247;" xml:space="preserve">
<style type="text/css">
	.st0{fill:#053C50;}
	.st1{fill:#00A9E2;}
</style>
<g id="XMLID_42_">
	<path id="XMLID_46_" class="st0" d="M0.1,225.5c0,0,3.4-22.4,10.2-26.1c6.8-3.7,36.9-16.3,36.9-16.3s11.5-3.7,9.1-14.2
		c-1.5-6.9-5.3-0.8-10.2-18.6c0,0-9.3-6-9.8-15.9c-0.3-7.5,5.7-5.5,5.7-5.5s-2-16.6,2.4-24.4s10.2-16.9,29.1-16.9
		s25.7,13.9,26.4,15.2c0.7,1.4,4.7,13.6,3,26.1c0,0,5.9-1,5.1,4.7c-1,6.7-1,12.2-7.8,14.9c0,0-1.9,7.2-5,12s-5,4-5.7,6.7
		c-0.7,2.7-0.5,8.8,3.2,12.5c3.7,3.7,32.5,13.9,32.5,13.9s12.5,2.7,16.3,17.3s5.8,19.3,2.7,21.3c-3,2-22,15.9-76.2,14.6
		S-1.6,234.1,0.1,225.5z"/>
	<path id="XMLID_45_" class="st1" d="M155.3,225.5c0,0,3.4-22.4,10.2-26.1c6.8-3.7,36.9-16.3,36.9-16.3s11.5-3.7,9.1-14.2
		c-1.5-6.9-5.3-0.8-10.2-18.6c0,0-9.3-6-9.8-15.9c-0.3-7.5,5.7-5.5,5.7-5.5s-2-16.6,2.4-24.4c4.4-7.8,10.2-16.9,29.1-16.9
		s25.7,13.9,26.4,15.2c0.7,1.4,4.7,13.6,3,26.1c0,0,5.9-1,5.1,4.7c-1,6.7-1,12.2-7.8,14.9c0,0-1.9,7.2-5,12c-3,4.7-5,4-5.7,6.7
		c-0.7,2.7-0.5,8.8,3.2,12.5c3.7,3.7,32.5,13.9,32.5,13.9s12.5,2.7,16.3,17.3c3.7,14.6,5.8,19.3,2.7,21.3c-3,2-22,15.9-76.2,14.6
		S153.5,234.1,155.3,225.5z"/>
	<path id="XMLID_44_" class="st0" d="M113.6,0C90.8,0,72.2,14.7,72.2,32.8c0,11.1,7,20.9,17.7,26.9l-4,12.3L99,63.4
		c4.6,1.4,9.5,2.1,14.6,2.1c22.9,0,41.4-14.7,41.4-32.8S136.5,0,113.6,0z"/>
	<path id="XMLID_43_" class="st1" d="M203.5,53.7c0-18.1-18.5-32.8-41.4-32.8c-0.8,0-1.5,0.1-2.3,0.1c1.6,3.9,2.6,8,2.6,12.4
		c0,17.9-15.4,33-36,36.9c7.2,9.7,20.5,16.2,35.7,16.2c5.2,0,10.1-0.8,14.6-2.1l13.1,8.6l-4-12.3C196.5,74.6,203.5,64.8,203.5,53.7z
		"/>
</g>
</svg>
