<?xml version="1.0" encoding="utf-8"?>
<!-- Generator: Adobe Illustrator 19.0.0, SVG Export Plug-In . SVG Version: 6.00 Build 0)  -->
<svg version="1.1" id="Camada_1" xmlns="http://www.w3.org/2000/svg" xmlns:xlink="http://www.w3.org/1999/xlink" x="0px" y="0px"
	 viewBox="0 0 298.3 270.6" style="enable-background:new 0 0 298.3 270.6;" xml:space="preserve">
<style type="text/css">
	.st0{fill:#00A9E2;}
	.st1{fill:#FFB600;}
	.st2{fill:#053C50;}
</style>
<g id="XMLID_74_">
	<circle id="XMLID_72_" class="st0" cx="69.2" cy="23.1" r="23.1"/>
	<circle id="XMLID_71_" class="st0" cx="248" cy="23.1" r="23.1"/>
	<circle id="XMLID_70_" class="st0" cx="275.2" cy="166.6" r="23.1"/>
	<g id="XMLID_110_">
		<circle id="XMLID_69_" class="st0" cx="99.4" cy="246.9" r="23.1"/>
	</g>
	<circle id="XMLID_68_" class="st0" cx="23.1" cy="124.9" r="23.1"/>
	<circle id="XMLID_67_" class="st1" cx="158.1" cy="91.1" r="28.4"/>
	<g id="XMLID_101_">
		<g id="XMLID_106_">
			<path id="XMLID_66_" class="st2" d="M53.1,122.3c-1.3,0-2.4-0.9-2.8-2.1c-0.4-1.5,0.5-3.1,2.1-3.5l12.9-3.3
				c1.5-0.4,3.1,0.5,3.5,2.1c0.4,1.5-0.5,3.1-2.1,3.5l-12.9,3.3C53.6,122.3,53.3,122.3,53.1,122.3z"/>
		</g>
		<g id="XMLID_104_">
			<path id="XMLID_65_" class="st2" d="M80.5,115.4c-1.3,0-2.4-0.9-2.8-2.1c-0.4-1.5,0.5-3.1,2.1-3.5l14.6-3.7
				c1.5-0.4,3.1,0.5,3.5,2.1c0.4,1.5-0.5,3.1-2.1,3.5l-14.6,3.7C81,115.3,80.8,115.4,80.5,115.4z"/>
		</g>
		<g id="XMLID_102_">
			<path id="XMLID_64_" class="st2" d="M109.6,107.9c-1.3,0-2.4-0.9-2.8-2.1c-0.4-1.5,0.5-3.1,2.1-3.5l12.9-3.3
				c1.5-0.4,3.1,0.5,3.5,2.1c0.4,1.5-0.5,3.1-2.1,3.5l-12.9,3.3C110.1,107.9,109.9,107.9,109.6,107.9z"/>
		</g>
	</g>
	<g id="XMLID_96_">
		<g id="XMLID_99_">
			<path id="XMLID_63_" class="st2" d="M103.2,53.4c-0.5,0-1.1-0.2-1.6-0.5l-11-7.4c-1.3-0.9-1.7-2.6-0.8-3.9s2.6-1.7,3.9-0.8
				l11,7.4c1.3,0.9,1.7,2.6,0.8,3.9C105,52.9,104.1,53.4,103.2,53.4z"/>
		</g>
		<g id="XMLID_97_">
			<path id="XMLID_62_" class="st2" d="M129.5,71c-0.5,0-1.1-0.2-1.6-0.5l-11-7.4c-1.3-0.9-1.7-2.6-0.8-3.9c0.9-1.3,2.6-1.7,3.9-0.8
				l11,7.4c1.3,0.9,1.7,2.6,0.8,3.9C131.3,70.5,130.4,71,129.5,71z"/>
		</g>
	</g>
	<g id="XMLID_91_">
		<g id="XMLID_94_">
			<path id="XMLID_61_" class="st2" d="M186.4,71.2c-0.8,0-1.7-0.4-2.2-1.1c-1-1.2-0.8-3,0.4-4l10.3-8.3c1.2-1,3-0.8,4,0.4
				c1,1.2,0.8,3-0.4,4l-10.3,8.3C187.7,71,187.1,71.2,186.4,71.2z"/>
		</g>
		<g id="XMLID_92_">
			<path id="XMLID_48_" class="st2" d="M211.1,51.4c-0.8,0-1.7-0.4-2.2-1.1c-1-1.2-0.8-3,0.4-4l10.3-8.3c1.2-1,3-0.8,4,0.4
				c1,1.2,0.8,3-0.4,4l-10.3,8.3C212.4,51.2,211.7,51.4,211.1,51.4z"/>
		</g>
	</g>
	<g id="XMLID_84_">
		<g id="XMLID_89_">
			<path id="XMLID_47_" class="st2" d="M200.6,121.1c-0.5,0-1.1-0.2-1.6-0.5l-11-7.4c-1.3-0.9-1.6-2.6-0.8-3.9
				c0.9-1.3,2.6-1.6,3.9-0.8l11,7.4c1.3,0.9,1.6,2.6,0.8,3.9C202.4,120.7,201.5,121.1,200.6,121.1z"/>
		</g>
		<g id="XMLID_87_">
			<path id="XMLID_46_" class="st2" d="M225.6,137.9c-0.5,0-1.1-0.2-1.6-0.5l-12.5-8.4c-1.3-0.9-1.6-2.6-0.8-3.9
				c0.9-1.3,2.6-1.6,3.9-0.8l12.5,8.4c1.3,0.9,1.6,2.6,0.8,3.9C227.4,137.5,226.5,137.9,225.6,137.9z"/>
		</g>
		<g id="XMLID_85_">
			<path id="XMLID_45_" class="st2" d="M249,153.7c-0.5,0-1.1-0.2-1.6-0.5l-11-7.4c-1.3-0.9-1.6-2.6-0.8-3.9
				c0.9-1.3,2.7-1.6,3.9-0.8l11,7.4c1.3,0.9,1.6,2.6,0.8,3.9C250.8,153.3,249.9,153.7,249,153.7z"/>
		</g>
	</g>
	<g id="XMLID_75_">
		<g id="XMLID_82_">
			<path id="XMLID_44_" class="st2" d="M110,221.6c-0.3,0-0.7-0.1-1-0.2c-1.5-0.5-2.2-2.2-1.7-3.6l4.5-12.5c0.5-1.5,2.2-2.2,3.6-1.7
				c1.5,0.5,2.2,2.2,1.7,3.6l-4.5,12.5C112.2,220.9,111.2,221.6,110,221.6z"/>
		</g>
		<g id="XMLID_78_">
			<path id="XMLID_79_" class="st2" d="M118.1,199.3c-0.3,0-0.7-0.1-1-0.2c-1.5-0.5-2.2-2.2-1.7-3.6l4.8-13.1
				c0.5-1.5,2.2-2.2,3.6-1.7c1.5,0.5,2.2,2.2,1.7,3.6l-4.8,13.1C120.4,198.6,119.3,199.3,118.1,199.3z M131.3,163.2
				c-0.3,0-0.7-0.1-1-0.2c-1.5-0.5-2.2-2.2-1.7-3.6l3.6-9.8c0.5-1.5,2.2-2.2,3.6-1.7c1.5,0.5,2.2,2.2,1.7,3.6l-3.6,9.8
				C133.5,162.5,132.4,163.2,131.3,163.2z"/>
		</g>
		<g id="XMLID_76_">
			<path id="XMLID_41_" class="st2" d="M139.6,140.2c-0.3,0-0.7-0.1-1-0.2c-1.5-0.5-2.2-2.2-1.7-3.6l4.5-12.5
				c0.5-1.5,2.2-2.2,3.6-1.7c1.5,0.5,2.2,2.2,1.7,3.6l-4.5,12.5C141.9,139.5,140.8,140.2,139.6,140.2z"/>
		</g>
	</g>
</g>
</svg>
