<?xml version="1.0" encoding="utf-8"?>
<!-- Generator: Adobe Illustrator 19.0.0, SVG Export Plug-In . SVG Version: 6.00 Build 0)  -->
<svg version="1.1" id="Camada_1" xmlns="http://www.w3.org/2000/svg" xmlns:xlink="http://www.w3.org/1999/xlink" x="0px" y="0px"
	 viewBox="0 0 233.2 291.6" style="enable-background:new 0 0 233.2 291.6;" xml:space="preserve">
<style type="text/css">
	.st0{fill:#00A9E2;}
	.st1{fill:#053C50;}
	.st2{fill:#FFB600;}
</style>
<g id="XMLID_47_">
	<path id="XMLID_45_" class="st0" d="M41.9,140.3c0,0,3.4-22.8,10.3-26.5c6.9-3.8,37.6-16.5,37.6-16.5s11.7-3.8,9.3-14.5
		c-1.6-7.1-5.3-0.9-10.3-19c0,0-9.5-6.2-9.9-16.2c-0.3-7.6,5.8-5.6,5.8-5.6s-2.1-16.9,2.4-24.8S97.5,0,116.8,0s26.2,14.1,26.9,15.5
		c0.7,1.4,4.8,13.8,3.1,26.5c0,0,6-1,5.2,4.8c-1,6.8-1,12.4-7.9,15.2c0,0-2,7.3-5.1,12.2c-3.1,4.8-5.1,4.1-5.8,6.8
		c-0.7,2.8-0.5,8.9,3.3,12.7c3.8,3.8,33.1,14.1,33.1,14.1s12.8,2.8,16.5,17.6s5.9,19.7,2.8,21.7c-3.1,2.1-22.4,16.2-77.6,14.8
		S40.2,149,41.9,140.3z"/>
	<path id="XMLID_44_" class="st1" d="M51.8,291.6H3c-1.6,0-3-1.4-3-3v-35.4c0-1.6,1.4-3,3-3h48.8c1.7,0,3,1.4,3,3v35.4
		C54.8,290.2,53.5,291.6,51.8,291.6z"/>
	<path id="XMLID_43_" class="st1" d="M141,291.6H92.2c-1.7,0-3-1.4-3-3v-35.4c0-1.6,1.3-3,3-3H141c1.6,0,3,1.4,3,3v35.4
		C144,290.2,142.7,291.6,141,291.6z"/>
	<path id="XMLID_42_" class="st1" d="M230.2,291.6h-48.8c-1.7,0-3-1.4-3-3v-35.4c0-1.6,1.3-3,3-3h48.8c1.7,0,3,1.4,3,3v35.4
		C233.2,290.2,231.9,291.6,230.2,291.6z"/>
	<g id="XMLID_48_">
		<path id="XMLID_41_" class="st2" d="M214.1,237l-16.5-0.4c0.2-6.7-1.3-11.4-4.4-14.6c-4.8-4.9-14.8-7.4-29.8-7.4
			c-22.4,0-38.3-8.9-46.5-14.8c-9.2,7.4-24.6,14-55.1,13.3c-10.4-0.3-17.8,1.9-22.2,6.4c-2.6,2.6-5.5,7.6-5,16.4c0,0.5,0,0.8,0,1
			l-16.5-0.1l8.3,0l-8.3,0.2l0-0.2c-0.8-14.8,4.8-23.9,9.7-28.9c7.8-8,19.4-11.8,34.5-11.4c34.8,0.9,44.1-8.9,48.1-13.2l6.2-6.6
			l6,6.3c0.6,0.6,15,15,40.8,15c20.1,0,33.4,3.9,41.6,12.4C211.3,216.8,214.4,225.8,214.1,237z"/>
	</g>
</g>
</svg>
