<?xml version="1.0" encoding="utf-8"?>
<!-- Generator: Adobe Illustrator 19.0.0, SVG Export Plug-In . SVG Version: 6.00 Build 0)  -->
<svg version="1.1" id="Camada_1" xmlns="http://www.w3.org/2000/svg" xmlns:xlink="http://www.w3.org/1999/xlink" x="0px" y="0px"
	 viewBox="0 0 265.8 273.7" style="enable-background:new 0 0 265.8 273.7;" xml:space="preserve">
<style type="text/css">
	.st0{fill:#0385AF;}
	.st1{fill:#00A9E2;}
	.st2{fill:#053C50;}
	.st3{fill:#FFB600;}
</style>
<g id="XMLID_41_">
	<path id="XMLID_48_" class="st0" d="M0.1,127.1c0,0,2.8-18.4,8.4-21.5c5.6-3.1,30.4-13.4,30.4-13.4s9.4-3.1,7.5-11.7
		c-1.3-5.7-4.3-0.7-8.4-15.3c0,0-7.7-5-8-13.1c-0.3-6.1,4.7-4.5,4.7-4.5s-1.7-13.7,2-20.1s8.4-13.9,24-13.9S81.8,25,82.4,26.1
		s3.9,11.2,2.5,21.5c0,0,4.9-0.8,4.2,3.9c-0.8,5.5-0.8,10-6.4,12.3c0,0-1.6,5.9-4.1,9.8c-2.5,3.9-4.1,3.3-4.7,5.5
		c-0.6,2.2-0.4,7.2,2.6,10.3c3.1,3.1,26.8,11.4,26.8,11.4s10.3,2.2,13.4,14.2s4.7,15.9,2.2,17.6c-2.5,1.7-18.1,13.1-62.8,12
		S-1.3,134.1,0.1,127.1z"/>
	<path id="XMLID_47_" class="st1" d="M143.6,101.5c-3.1-12-13.4-14.2-13.4-14.2s-23.7-8.4-26.8-11.4s-3.2-8-2.6-10.3
		c0.6-2.2,2.2-1.6,4.7-5.5c2.5-3.9,4.1-9.8,4.1-9.8c5.6-2.2,5.6-6.8,6.4-12.3c0.7-4.7-4.2-3.9-4.2-3.9c1.4-10.3-2-20.4-2.5-21.5
		C108.8,11.4,103.2,0,87.6,0C75.3,0,69.8,4.6,66.2,9.7C79.6,11.5,85.5,21.1,87,24.2c0.9,1.9,3.6,10.5,3.3,19.9
		c0.7,0.3,1.3,0.7,1.9,1.3c1.2,1.1,2.5,3.2,2,6.7c-0.1,0.5-0.2,1.1-0.2,1.6c-0.6,4.5-1.3,9.9-6.9,13c-0.7,2.3-2.1,6.2-4.1,9.1
		c-1.7,2.6-3.2,3.8-4,4.5c0,0-0.1,0.1-0.1,0.1c-0.2,1.4,0,4.4,1.6,6c1.9,1.6,14.4,6.6,25,10.4c2.1,0.5,12.8,4,16.2,17.2
		c0.5,2.1,1,3.9,1.5,5.6c0.8,3.1,1.5,5.7,1.9,7.9c13.5-3.2,19.4-7.5,20.9-8.4C148.4,117.4,146.7,113.5,143.6,101.5z"/>
	<path id="XMLID_46_" class="st2" d="M53.2,273.7H11.7c-1.6,0-3-1.3-3-3v-53.6c0-1.6,1.4-3,3-3h41.5c1.7,0,3,1.4,3,3v53.6
		C56.2,272.3,54.8,273.7,53.2,273.7z"/>
	<path id="XMLID_45_" class="st2" d="M122.4,273.7H80.9c-1.6,0-3-1.3-3-3v-76.1c0-1.6,1.4-3,3-3h41.5c1.7,0,3,1.4,3,3v76.1
		C125.4,272.3,124,273.7,122.4,273.7z"/>
	<path id="XMLID_44_" class="st2" d="M191.5,273.7h-41.5c-1.7,0-3-1.3-3-3V155.2c0-1.6,1.3-3,3-3h41.5c1.6,0,3,1.4,3,3v115.5
		C194.5,272.3,193.2,273.7,191.5,273.7z"/>
	<path id="XMLID_43_" class="st2" d="M260.7,273.7h-41.5c-1.7,0-3-1.3-3-3V92.6c0-1.6,1.3-3,3-3h41.5c1.7,0,3,1.4,3,3v178.1
		C263.7,272.3,262.4,273.7,260.7,273.7z"/>
	<path id="XMLID_42_" class="st3" d="M257.6,19.2c-0.2,0-0.4,0.1-0.6,0.1l-36.1,12.1c0,0,0,0,0,0l-3.3,0.9c-4.2,1.1-5.4,6.6-2.1,9.4
		l12.1,10.1c-0.3,0.2-0.5,0.4-0.8,0.7c-110.1,126-210.8,141-213.5,141.4c-3.1,0.2-5.6,2.8-5.6,6c0,3.3,2.7,6.1,6.1,6.1
		c1,0,106.5-13.1,222.2-145.5c0.3-0.3,0.5-0.7,0.7-1.1l13.1,11c4.4,3.6,8.4,2,9-3.7l0.3-3.3c0,0,0,0,0,0l6.6-36.5c0-0.2,0-0.4,0-0.6
		C265.3,22.2,261.7,19.1,257.6,19.2z"/>
</g>
</svg>
